<svg id="Layer_1" data-name="Layer 1" xmlns="http://www.w3.org/2000/svg" viewBox="0 0 788.5 125.4971"><defs><style>.cls-1{fill:#fff;}.cls-2{font-size:17px;}.cls-2,.cls-3{font-family:CMUTypewriter-Regular, CMU Typewriter Text;}.cls-3{font-size:16px;}.cls-4{fill:none;stroke:#000;stroke-miterlimit:10;stroke-dasharray:12.0797 12.0797;}</style></defs><rect class="cls-1" x="7.5" y="47.9971" width="164" height="58" rx="17.5791"/><path d="M455.1707,445A17.0986,17.0986,0,0,1,472.25,462.0793v22.8414A17.0986,17.0986,0,0,1,455.1707,502H326.3293A17.0986,17.0986,0,0,1,309.25,484.9207V462.0793A17.0986,17.0986,0,0,1,326.3293,445H455.1707m0-1H326.3293A18.0793,18.0793,0,0,0,308.25,462.0793v22.8414A18.0793,18.0793,0,0,0,326.3293,503H455.1707A18.0793,18.0793,0,0,0,473.25,484.9207V462.0793A18.0793,18.0793,0,0,0,455.1707,444Z" transform="translate(-301.25 -396.5029)"/><text class="cls-2" transform="translate(13.6516 80.5984)">innerDot(A[<tspan x="98.1572" y="0">0</tspan><tspan x="107.0801" y="0">], b)</tspan></text><rect class="cls-1" x="615.5" y="47.9971" width="164" height="58" rx="17.5791"/><path d="M1063.1707,445a17.0986,17.0986,0,0,1,17.0793,17.0793v22.8414A17.0986,17.0986,0,0,1,1063.1707,502H934.3293A17.0986,17.0986,0,0,1,917.25,484.9207V462.0793A17.0986,17.0986,0,0,1,934.3293,445h128.8414m0-1H934.3293A18.0793,18.0793,0,0,0,916.25,462.0793v22.8414A18.0793,18.0793,0,0,0,934.3293,503h128.8414a18.0793,18.0793,0,0,0,18.0793-18.0793V462.0793A18.0793,18.0793,0,0,0,1063.1707,444Z" transform="translate(-301.25 -396.5029)"/><text class="cls-3" transform="translate(617.7151 80.5984)">innerDot(A[n-1], b)</text><path class="cls-1" d="M211.6367,47.9971H340.4785a17.5791,17.5791,0,0,1,17.5791,17.5791V88.4175a17.58,17.58,0,0,1-17.58,17.58H211.6367A17.5791,17.5791,0,0,1,194.0576,88.418V65.5762A17.5791,17.5791,0,0,1,211.6367,47.9971Z"/><path d="M641.728,445a17.0987,17.0987,0,0,1,17.0794,17.0793v22.8414A17.0987,17.0987,0,0,1,641.728,502H512.8867a17.0986,17.0986,0,0,1-17.0793-17.0793V462.0793A17.0986,17.0986,0,0,1,512.8867,445H641.728m0-1H512.8867a18.0793,18.0793,0,0,0-18.0793,18.0793v22.8414A18.0793,18.0793,0,0,0,512.8867,503H641.728a18.0793,18.0793,0,0,0,18.0794-18.0793V462.0793A18.0793,18.0793,0,0,0,641.728,444Z" transform="translate(-301.25 -396.5029)"/><text class="cls-2" transform="translate(200.209 80.5979)">innerDot(A[<tspan x="98.1572" y="0">1</tspan><tspan x="107.0801" y="0">], b)</tspan></text><path class="cls-1" d="M398.1938,47.9971H527.0361a17.5791,17.5791,0,0,1,17.5791,17.5791V88.417a17.58,17.58,0,0,1-17.58,17.58h-128.84a17.58,17.58,0,0,1-17.58-17.58V65.5762a17.5791,17.5791,0,0,1,17.5791-17.5791Z"/><path d="M828.2854,445a17.0986,17.0986,0,0,1,17.0793,17.0793v22.8414A17.0986,17.0986,0,0,1,828.2854,502H699.4441a17.0987,17.0987,0,0,1-17.0794-17.0793V462.0793A17.0987,17.0987,0,0,1,699.4441,445H828.2854m0-1H699.4441a18.0793,18.0793,0,0,0-18.0794,18.0793v22.8414A18.0793,18.0793,0,0,0,699.4441,503H828.2854a18.0793,18.0793,0,0,0,18.0793-18.0793V462.0793A18.0793,18.0793,0,0,0,828.2854,444Z" transform="translate(-301.25 -396.5029)"/><text class="cls-2" transform="translate(386.7664 80.5984)">innerDot(A[<tspan x="98.1572" y="0">2</tspan><tspan x="107.0801" y="0">], b)</tspan></text><text class="cls-2" transform="translate(558.4995 80.3652)">...</text><path d="M391.5,444" transform="translate(-301.25 -396.5029)"/><rect class="cls-4" x="0.5" y="28.9971" width="787.5" height="96" rx="16.0182"/><text class="cls-3" transform="translate(0.5 12.8877)">n tasks</text></svg>