<svg id="Layer_1" data-name="Layer 1" xmlns="http://www.w3.org/2000/svg" viewBox="0 0 602.44 358.26"><defs><style>.cls-1{fill:none;stroke:#000;stroke-miterlimit:10;}</style></defs><circle cx="23.92" cy="24.51" r="4"/><path d="M453.17,192.75a3.5,3.5,0,1,1-3.5,3.5,3.5,3.5,0,0,1,3.5-3.5m0-1a4.5,4.5,0,1,0,4.5,4.5,4.49,4.49,0,0,0-4.5-4.5Z" transform="translate(-429.24 -171.74)"/><circle cx="186.59" cy="24.51" r="4"/><path d="M615.83,192.75a3.5,3.5,0,1,1-3.5,3.5,3.5,3.5,0,0,1,3.5-3.5m0-1a4.5,4.5,0,1,0,4.5,4.5,4.5,4.5,0,0,0-4.5-4.5Z" transform="translate(-429.24 -171.74)"/><circle cx="349.26" cy="24.51" r="4"/><path d="M778.5,192.75a3.5,3.5,0,1,1-3.5,3.5,3.5,3.5,0,0,1,3.5-3.5m0-1a4.5,4.5,0,1,0,4.5,4.5,4.49,4.49,0,0,0-4.5-4.5Z" transform="translate(-429.24 -171.74)"/><circle cx="511.92" cy="24.76" r="4"/><path d="M941.17,193a3.5,3.5,0,1,1-3.5,3.5,3.5,3.5,0,0,1,3.5-3.5m0-1a4.5,4.5,0,1,0,4.5,4.5,4.49,4.49,0,0,0-4.5-4.5Z" transform="translate(-429.24 -171.74)"/><circle cx="92.92" cy="189.01" r="4"/><path d="M522.17,357.25a3.5,3.5,0,1,1-3.5,3.5,3.5,3.5,0,0,1,3.5-3.5m0-1a4.5,4.5,0,1,0,4.5,4.5,4.49,4.49,0,0,0-4.5-4.5Z" transform="translate(-429.24 -171.74)"/><circle cx="255.59" cy="189.01" r="4"/><path d="M684.83,357.25a3.5,3.5,0,1,1-3.5,3.5,3.5,3.5,0,0,1,3.5-3.5m0-1a4.5,4.5,0,1,0,4.5,4.5,4.5,4.5,0,0,0-4.5-4.5Z" transform="translate(-429.24 -171.74)"/><circle cx="418.26" cy="189.01" r="4"/><path d="M847.5,357.25a3.5,3.5,0,1,1-3.5,3.5,3.5,3.5,0,0,1,3.5-3.5m0-1a4.5,4.5,0,1,0,4.5,4.5,4.49,4.49,0,0,0-4.5-4.5Z" transform="translate(-429.24 -171.74)"/><circle cx="580.92" cy="189.26" r="4"/><path d="M1010.17,357.5a3.5,3.5,0,1,1-3.5,3.5,3.5,3.5,0,0,1,3.5-3.5m0-1a4.5,4.5,0,1,0,4.5,4.5,4.49,4.49,0,0,0-4.5-4.5Z" transform="translate(-429.24 -171.74)"/><circle cx="23.92" cy="353.51" r="4"/><path d="M453.17,521.75a3.5,3.5,0,1,1-3.5,3.5,3.5,3.5,0,0,1,3.5-3.5m0-1a4.5,4.5,0,1,0,4.5,4.5,4.49,4.49,0,0,0-4.5-4.5Z" transform="translate(-429.24 -171.74)"/><circle cx="186.59" cy="353.51" r="4"/><path d="M615.83,521.75a3.5,3.5,0,1,1-3.5,3.5,3.5,3.5,0,0,1,3.5-3.5m0-1a4.5,4.5,0,1,0,4.5,4.5,4.5,4.5,0,0,0-4.5-4.5Z" transform="translate(-429.24 -171.74)"/><circle cx="349.26" cy="353.51" r="4"/><path d="M778.5,521.75a3.5,3.5,0,1,1-3.5,3.5,3.5,3.5,0,0,1,3.5-3.5m0-1a4.5,4.5,0,1,0,4.5,4.5,4.49,4.49,0,0,0-4.5-4.5Z" transform="translate(-429.24 -171.74)"/><circle cx="511.92" cy="353.76" r="4"/><path d="M941.17,522a3.5,3.5,0,1,1-3.5,3.5,3.5,3.5,0,0,1,3.5-3.5m0-1a4.5,4.5,0,1,0,4.5,4.5,4.49,4.49,0,0,0-4.5-4.5Z" transform="translate(-429.24 -171.74)"/><path d="M429.34,177.11a6.59,6.59,0,0,1,1.07-3.82,2.84,2.84,0,0,1,5.06,0,7.38,7.38,0,0,1,0,7.67,3.06,3.06,0,0,1-2.53,1.56,3.12,3.12,0,0,1-2.53-1.54A6.56,6.56,0,0,1,429.34,177.11Zm1.17-.16a6.59,6.59,0,0,0,.72,3.19c.48.89,1,1.33,1.72,1.33s1.24-.44,1.71-1.33a6.59,6.59,0,0,0,.72-3.19,5.67,5.67,0,0,0-.73-3,1.82,1.82,0,0,0-3.41,0A5.66,5.66,0,0,0,430.51,177Z" transform="translate(-429.24 -171.74)"/><path d="M596.28,174.34c0-.33.22-.5.65-.52a2.47,2.47,0,0,0,1.9-1.67c.1-.27.26-.41.47-.41s.48.23.48.7v8.84h1.86a.55.55,0,0,1,.24.15.49.49,0,0,1,.13.37c0,.34-.23.51-.68.51h-4.27c-.45,0-.68-.17-.68-.51a.49.49,0,0,1,.13-.37.46.46,0,0,1,.24-.15h1.86v-7.17a2.7,2.7,0,0,1-1.76.74Q596.28,174.85,596.28,174.34Z" transform="translate(-429.24 -171.74)"/><path d="M754.38,181.79a.62.62,0,0,1,.25-.46l3.76-3.16c1.31-1.09,2-2.13,2-3.11a2,2,0,0,0-.78-1.68,3.09,3.09,0,0,0-1.91-.6,2.23,2.23,0,0,0-1.25.36,1.72,1.72,0,0,0-.75,1,.66.66,0,0,1,.24.54.68.68,0,0,1-.23.55.73.73,0,0,1-.51.21.8.8,0,0,1-.52-.19.73.73,0,0,1-.25-.62,2.6,2.6,0,0,1,.94-2,3.47,3.47,0,0,1,2.41-.86,4.06,4.06,0,0,1,2.69.91,3,3,0,0,1,1.09,2.41,4.62,4.62,0,0,1-1.85,3.4c-.27.25-.83.72-1.68,1.42l-1.68,1.4h4a4,4,0,0,1,0-.44.4.4,0,0,1,.15-.24.65.65,0,0,1,.43-.12q.39,0,.48.18a1.18,1.18,0,0,1,.09.52v.44a.83.83,0,0,1-.13.55.74.74,0,0,1-.55.15h-5.76C754.61,182.32,754.38,182.14,754.38,181.79Z" transform="translate(-429.24 -171.74)"/><path d="M919.24,180a.74.74,0,0,1,.77-.8.73.73,0,0,1,.53.22.76.76,0,0,1,.21.53.7.7,0,0,1-.2.53,1.73,1.73,0,0,0,1,.76,4.77,4.77,0,0,0,1.41.23,2.53,2.53,0,0,0,1.8-.64,2,2,0,0,0,.7-1.47,2,2,0,0,0-.69-1.47,2.57,2.57,0,0,0-1.86-.65h-.79l-.32,0a.49.49,0,0,1-.36-.49c0-.22.07-.35.21-.4a4.21,4.21,0,0,1,1-.13,2.65,2.65,0,0,0,1.58-.52,1.87,1.87,0,0,0,.72-1.5,1.19,1.19,0,0,0-.57-1,2.42,2.42,0,0,0-1.44-.4,2.7,2.7,0,0,0-1.9.53.62.62,0,0,1,.16.46.73.73,0,0,1-.23.55.75.75,0,0,1-.52.21.81.81,0,0,1-.52-.2.75.75,0,0,1-.24-.6,1.67,1.67,0,0,1,.86-1.45,4.42,4.42,0,0,1,2.37-.54,3.64,3.64,0,0,1,2.31.71,2.15,2.15,0,0,1,.89,1.71,2.92,2.92,0,0,1-.37,1.39,3,3,0,0,1-1,1.12,3.33,3.33,0,0,1,1.38,1.1,2.6,2.6,0,0,1,.53,1.59,3,3,0,0,1-1,2.2,3.77,3.77,0,0,1-2.64.95,4.79,4.79,0,0,1-2.68-.7A2.08,2.08,0,0,1,919.24,180Z" transform="translate(-429.24 -171.74)"/><path d="M534,342.76a1,1,0,0,1,.15-.59l3.88-6.09a.78.78,0,0,1,.27-.31,1.41,1.41,0,0,1,.44,0h.48a.82.82,0,0,1,.56.14.83.83,0,0,1,.13.56v6h1.65a.41.41,0,0,1,.23.15.45.45,0,0,1,.13.36c0,.34-.22.51-.68.51H539.9v1.84h1.37a.51.51,0,0,1,.37.52c0,.34-.23.51-.68.51H537.9c-.46,0-.68-.17-.68-.51a.49.49,0,0,1,.13-.37.48.48,0,0,1,.23-.15H539v-1.84h-4.28a.54.54,0,0,1-.68-.68Zm1.19-.35H539v-5.94Z" transform="translate(-429.24 -171.74)"/><path d="M700.37,343.9a.74.74,0,0,1,.25-.63.89.89,0,0,1,.53-.18.73.73,0,0,1,.74.76.75.75,0,0,1-.23.55,2.1,2.1,0,0,0,2.05,1.07,2.71,2.71,0,0,0,1.86-.69,2.16,2.16,0,0,0,.77-1.69,2.5,2.5,0,0,0-.58-1.63,1.93,1.93,0,0,0-1.58-.72,2.62,2.62,0,0,0-2.14.85.61.61,0,0,1-.51.25.54.54,0,0,1-.38-.12.47.47,0,0,1-.14-.24,2.56,2.56,0,0,1,0-.34v-4.51a.81.81,0,0,1,.14-.55.73.73,0,0,1,.54-.15h4.57l.32,0a.51.51,0,0,1,.24.14.49.49,0,0,1,.13.36c0,.34-.23.51-.69.52h-4.08v3.23a4.36,4.36,0,0,1,2-.5,3.11,3.11,0,0,1,2.39,1,3.41,3.41,0,0,1,.93,2.37,3.13,3.13,0,0,1-1.1,2.41,3.88,3.88,0,0,1-2.7,1,3.71,3.71,0,0,1-2.38-.77A2.3,2.3,0,0,1,700.37,343.9Z" transform="translate(-429.24 -171.74)"/><path d="M859.4,341.24a5.75,5.75,0,0,1,1.36-4,4.17,4.17,0,0,1,3.18-1.52,2.4,2.4,0,0,1,1.7.52,1.62,1.62,0,0,1,.57,1.23.81.81,0,0,1-.22.59.76.76,0,0,1-.54.21.7.7,0,0,1-.54-.22.74.74,0,0,1-.21-.53.64.64,0,0,1,.17-.49,1.34,1.34,0,0,0-.94-.27,2.91,2.91,0,0,0-2.17,1,4.47,4.47,0,0,0-1.16,2.75,3.68,3.68,0,0,1,2.53-1,3.2,3.2,0,0,1,2.39,1,3.37,3.37,0,0,1,1,2.44,3.27,3.27,0,0,1-1,2.48,3.46,3.46,0,0,1-2.47,1,3,3,0,0,1-1.28-.28,3.43,3.43,0,0,1-1.14-.84,4,4,0,0,1-.85-1.64A8.92,8.92,0,0,1,859.4,341.24Zm1.34,1.3a3.31,3.31,0,0,0,0,.53l0,.15,0,.07,0,.15,0,.15c.41,1.25,1.11,1.87,2.11,1.88a2.28,2.28,0,0,0,1.64-.68,2.34,2.34,0,0,0,.7-1.75,2.43,2.43,0,0,0-.64-1.7,2.1,2.1,0,0,0-1.64-.7,2.48,2.48,0,0,0-1.64.55A1.68,1.68,0,0,0,860.74,342.54Z" transform="translate(-429.24 -171.74)"/><path d="M1024.24,337.09v-.72a2.74,2.74,0,0,1,0-.35.38.38,0,0,1,.16-.24.62.62,0,0,1,.42-.12c.3,0,.49.09.56.27h5.6l.32,0a.45.45,0,0,1,.23.14.58.58,0,0,1,.07.62,2.42,2.42,0,0,1-.31.33c-.26.27-.52.55-.78.85a12.84,12.84,0,0,0-1,1.29,14.24,14.24,0,0,0-1,1.76,12.52,12.52,0,0,0-.71,2.21,13.19,13.19,0,0,0-.33,2.68.69.69,0,0,1-.17.51.54.54,0,0,1-.4.17q-.6,0-.6-.81a12,12,0,0,1,.14-1.73,16.9,16.9,0,0,1,.51-2.13,11.25,11.25,0,0,1,1.09-2.48,13.25,13.25,0,0,1,1.78-2.39h-4.48a4.24,4.24,0,0,1,0,.45.4.4,0,0,1-.15.25.61.61,0,0,1-.44.13c-.27,0-.43-.06-.5-.18A1.22,1.22,0,0,1,1024.24,337.09Z" transform="translate(-429.24 -171.74)"/><path d="M429.24,509.36a2.3,2.3,0,0,1,.68-1.63,3.78,3.78,0,0,1,1.69-1,3.52,3.52,0,0,1-1.57-.93,1.92,1.92,0,0,1-.56-1.33,2.4,2.4,0,0,1,1-1.89,4.11,4.11,0,0,1,4.94,0,2.42,2.42,0,0,1,1,1.9,1.92,1.92,0,0,1-.56,1.33,3.72,3.72,0,0,1-1.57.93,3.78,3.78,0,0,1,1.69,1,2.3,2.3,0,0,1,.68,1.63,2.85,2.85,0,0,1-1.07,2.2,4.13,4.13,0,0,1-5.27,0A2.83,2.83,0,0,1,429.24,509.36Zm1.17,0a1.91,1.91,0,0,0,.75,1.51,2.91,2.91,0,0,0,3.59,0,1.88,1.88,0,0,0,0-3,2.92,2.92,0,0,0-3.65,0A1.93,1.93,0,0,0,430.41,509.34Zm.24-4.86a1.49,1.49,0,0,0,.68,1.22,2.71,2.71,0,0,0,1.62.5,2.66,2.66,0,0,0,1.61-.5,1.47,1.47,0,0,0,.68-1.22,1.49,1.49,0,0,0-.66-1.19,2.88,2.88,0,0,0-3.27,0A1.49,1.49,0,0,0,430.65,504.48Z" transform="translate(-429.24 -171.74)"/><path d="M595.4,505.21a3.24,3.24,0,0,1,1.07-2.48,3.62,3.62,0,0,1,2.53-1,3.06,3.06,0,0,1,1.24.26,3.47,3.47,0,0,1,1.11.82,4.11,4.11,0,0,1,.84,1.65,9.12,9.12,0,0,1,.32,2.54,5.92,5.92,0,0,1-1.3,4,3.86,3.86,0,0,1-3,1.54,4.06,4.06,0,0,1-1.3-.19,1.64,1.64,0,0,1-.77-.5,2.19,2.19,0,0,1-.32-.56,1.31,1.31,0,0,1-.1-.5.78.78,0,0,1,.23-.59.73.73,0,0,1,.54-.22.77.77,0,0,1,.54.22.76.76,0,0,1,.21.53.71.71,0,0,1-.16.48,1.86,1.86,0,0,0,1.13.29,2.67,2.67,0,0,0,2.1-1.1,4.76,4.76,0,0,0,1-2.7,3.65,3.65,0,0,1-2.53,1,3.22,3.22,0,0,1-2.38-1A3.37,3.37,0,0,1,595.4,505.21Zm1.17,0a2.41,2.41,0,0,0,.64,1.69,2.11,2.11,0,0,0,1.64.71,2.39,2.39,0,0,0,1.67-.58,1.74,1.74,0,0,0,.66-1.33,2.05,2.05,0,0,0,0-.28,1.3,1.3,0,0,1,0-.23.28.28,0,0,1,0-.09.18.18,0,0,0,0-.06,2.11,2.11,0,0,0-.07-.31c0-.15-.12-.35-.23-.6a2.8,2.8,0,0,0-.35-.62,1.8,1.8,0,0,0-1.48-.73,2.45,2.45,0,0,0-1.7.68A2.27,2.27,0,0,0,596.57,505.21Z" transform="translate(-429.24 -171.74)"/><path d="M750.82,504.34c0-.33.22-.5.65-.52a2.47,2.47,0,0,0,1.9-1.67c.1-.27.26-.41.47-.41s.48.23.48.7v8.84h1.86a.55.55,0,0,1,.24.15.54.54,0,0,1,.13.37c0,.34-.23.51-.68.51H751.6c-.45,0-.68-.17-.68-.51a.49.49,0,0,1,.13-.37.46.46,0,0,1,.24-.15h1.86v-7.17a2.7,2.7,0,0,1-1.77.74C751,504.85,750.82,504.68,750.82,504.34Z" transform="translate(-429.24 -171.74)"/><path d="M758.8,507.11a6.59,6.59,0,0,1,1.07-3.82,2.84,2.84,0,0,1,5.06,0,6.55,6.55,0,0,1,1.08,3.85,6.64,6.64,0,0,1-1.07,3.83,2.84,2.84,0,0,1-5.05,0A6.49,6.49,0,0,1,758.8,507.11ZM760,507a6.59,6.59,0,0,0,.72,3.19c.48.89,1,1.33,1.72,1.33s1.24-.44,1.71-1.33a6.59,6.59,0,0,0,.72-3.19,5.67,5.67,0,0,0-.73-3,2.06,2.06,0,0,0-1.7-1.17,2,2,0,0,0-1.7,1.18A5.57,5.57,0,0,0,760,507Z" transform="translate(-429.24 -171.74)"/><path d="M915.82,504.34c0-.33.22-.5.65-.52a2.47,2.47,0,0,0,1.9-1.67c.1-.27.26-.41.47-.41s.48.23.48.7v8.84h1.86a.55.55,0,0,1,.24.15.54.54,0,0,1,.13.37c0,.34-.23.51-.68.51H916.6c-.45,0-.68-.17-.68-.51a.49.49,0,0,1,.13-.37.46.46,0,0,1,.24-.15h1.86v-7.17a2.7,2.7,0,0,1-1.77.74C916,504.85,915.82,504.68,915.82,504.34Z" transform="translate(-429.24 -171.74)"/><path d="M924.74,504.34c0-.33.22-.5.65-.52a2.47,2.47,0,0,0,1.9-1.67c.1-.27.26-.41.47-.41s.48.23.49.7v8.84h1.85a.46.46,0,0,1,.24.15.49.49,0,0,1,.13.37c0,.34-.23.51-.68.51h-4.27c-.45,0-.68-.17-.68-.51a.49.49,0,0,1,.13-.37.55.55,0,0,1,.24-.15h1.86v-7.17a2.7,2.7,0,0,1-1.76.74Q924.74,504.85,924.74,504.34Z" transform="translate(-429.24 -171.74)"/><line class="cls-1" x1="24.26" y1="24.76" x2="186.26" y2="24.76"/><line class="cls-1" x1="24.26" y1="24.76" x2="93.26" y2="188.76"/><line class="cls-1" x1="24.26" y1="24.76" x2="24.26" y2="353.76"/><line class="cls-1" x1="186.26" y1="24.76" x2="349.26" y2="24.76"/><line class="cls-1" x1="255.26" y1="188.76" x2="186.26" y2="24.76"/><line class="cls-1" x1="418.26" y1="188.76" x2="186.26" y2="24.76"/><line class="cls-1" x1="349.26" y1="24.76" x2="512.26" y2="24.76"/><line class="cls-1" x1="255.26" y1="188.76" x2="349.26" y2="24.76"/><line class="cls-1" x1="418.26" y1="188.76" x2="349.26" y2="24.76"/><line class="cls-1" x1="512.26" y1="24.76" x2="581.26" y2="189.76"/><line class="cls-1" x1="255.26" y1="188.76" x2="93.26" y2="188.76"/><line class="cls-1" x1="24.26" y1="353.76" x2="93.26" y2="188.76"/><line class="cls-1" x1="186.26" y1="353.76" x2="93.26" y2="188.76"/><line class="cls-1" x1="418.26" y1="188.76" x2="255.26" y2="188.76"/><line class="cls-1" x1="186.26" y1="353.76" x2="255.26" y2="188.76"/><line class="cls-1" x1="418.26" y1="188.76" x2="581.26" y2="189.76"/><line class="cls-1" x1="24.76" y1="354.26" x2="417.76" y2="189.26"/><line class="cls-1" x1="186.76" y1="354.26" x2="417.76" y2="189.26"/><line class="cls-1" x1="349.26" y1="353.76" x2="418.26" y2="188.76"/><line class="cls-1" x1="512.26" y1="353.76" x2="418.26" y2="189.76"/><line class="cls-1" x1="187.26" y1="354.76" x2="349.26" y2="353.76"/></svg>