<svg id="Layer_1" data-name="Layer 1" xmlns="http://www.w3.org/2000/svg" viewBox="0 0 596.82 502.34"><defs><style>.cls-1,.cls-2,.cls-3{fill:none;stroke:#000;stroke-miterlimit:10;}.cls-2{stroke-dasharray:8.83 8.83;}.cls-3{stroke-dasharray:6.67 6.67;}.cls-4{fill:#c6c6c6;}</style></defs><rect class="cls-1" x="0.5" y="78.7" width="38.5" height="32"/><path d="M314.11,259c0-.4.27-.62.8-.65a3,3,0,0,0,2.35-2.06c.13-.33.32-.5.59-.5s.58.29.59.86v10.92h1.91l.39,0a.68.68,0,0,1,.29.18.66.66,0,0,1,.16.46c0,.42-.28.62-.84.62h-5.27c-.56,0-.84-.2-.84-.62a.65.65,0,0,1,.15-.46.7.7,0,0,1,.3-.18l.39,0H317v-8.86a3.31,3.31,0,0,1-2.18.93C314.34,259.58,314.11,259.37,314.11,259Z" transform="translate(-297.5 -169.66)"/><polyline class="cls-1" points="77.5 84.69 77.5 78.69 83.5 78.69"/><line class="cls-2" x1="92.33" y1="78.7" x2="105.58" y2="78.7"/><polyline class="cls-1" points="110 78.69 116 78.69 116 84.69"/><line class="cls-3" x1="116" y1="91.36" x2="116" y2="101.36"/><polyline class="cls-1" points="116 104.69 116 110.69 110 110.69"/><line class="cls-2" x1="101.17" y1="110.7" x2="87.92" y2="110.7"/><polyline class="cls-1" points="83.5 110.69 77.5 110.69 77.5 104.69"/><line class="cls-3" x1="77.5" y1="98.03" x2="77.5" y2="88.03"/><path d="M390,268.16a.8.8,0,0,1,.32-.58l4.65-3.9q2.42-2,2.41-3.84a2.47,2.47,0,0,0-1-2.07A3.74,3.74,0,0,0,394,257a2.82,2.82,0,0,0-1.54.44,2.22,2.22,0,0,0-.92,1.18.81.81,0,0,1,.3.67.84.84,0,0,1-.29.68.89.89,0,0,1-.63.26,1,1,0,0,1-.65-.24.92.92,0,0,1-.31-.76,3.22,3.22,0,0,1,1.17-2.45,4.25,4.25,0,0,1,3-1.06,5,5,0,0,1,3.32,1.12,3.68,3.68,0,0,1,1.35,3,5.73,5.73,0,0,1-2.29,4.2c-.33.3-1,.89-2.07,1.76l-2.08,1.72h5a3.73,3.73,0,0,1,0-.54.46.46,0,0,1,.19-.3.81.81,0,0,1,.52-.14c.32,0,.52.07.6.22a1.53,1.53,0,0,1,.11.64v.54a1,1,0,0,1-.17.68.91.91,0,0,1-.67.18h-7.12C390.28,268.8,390,268.59,390,268.16Z" transform="translate(-297.5 -169.66)"/><rect class="cls-4" x="500.1" y="78.7" width="38.4" height="32"/><polygon class="cls-1" points="192.9 110.69 154.5 110.69 154.5 78.69 192.9 78.69 231.3 78.69 269.7 78.69 308.1 78.69 346.5 78.69 384.9 78.69 423.3 78.69 461.7 78.69 500.1 78.69 538.5 78.69 538.5 110.69 500.1 110.69 461.7 110.69 423.3 110.69 384.9 110.69 346.5 110.69 308.1 110.69 269.7 110.69 231.3 110.69 192.9 110.69"/><line class="cls-1" x1="500.1" y1="78.7" x2="500.1" y2="110.7"/><line class="cls-1" x1="461.7" y1="78.7" x2="461.7" y2="110.7"/><line class="cls-1" x1="423.3" y1="78.7" x2="423.3" y2="110.7"/><line class="cls-1" x1="384.9" y1="78.7" x2="384.9" y2="110.7"/><line class="cls-1" x1="346.5" y1="78.7" x2="346.5" y2="110.7"/><line class="cls-1" x1="308.1" y1="78.7" x2="308.1" y2="110.7"/><line class="cls-1" x1="269.7" y1="78.7" x2="269.7" y2="110.7"/><line class="cls-1" x1="231.3" y1="78.7" x2="231.3" y2="110.7"/><line class="cls-1" x1="192.9" y1="78.7" x2="192.9" y2="110.7"/><path d="M505.12,265.82a.88.88,0,0,1,.31-.77,1,1,0,0,1,.65-.24.93.93,0,0,1,.64.26.88.88,0,0,1,.28.69.93.93,0,0,1-.28.68,2.58,2.58,0,0,0,2.53,1.32,3.39,3.39,0,0,0,2.3-.85,2.69,2.69,0,0,0,.95-2.1,3.09,3.09,0,0,0-.72-2,2.37,2.37,0,0,0-1.95-.9,3.27,3.27,0,0,0-2.65,1.06.77.77,0,0,1-.62.31.61.61,0,0,1-.47-.16.49.49,0,0,1-.18-.29,3.81,3.81,0,0,1,0-.41v-5.58a1,1,0,0,1,.17-.68.93.93,0,0,1,.67-.18h5.65a2.07,2.07,0,0,1,.39,0,.53.53,0,0,1,.29.17.58.58,0,0,1,.16.45c0,.42-.28.63-.84.64h-5v4a5.27,5.27,0,0,1,2.51-.62,3.81,3.81,0,0,1,2.94,1.26,4.21,4.21,0,0,1,1.16,2.92,3.9,3.9,0,0,1-1.37,3,4.76,4.76,0,0,1-3.33,1.24,4.57,4.57,0,0,1-2.94-1A2.83,2.83,0,0,1,505.12,265.82Z" transform="translate(-297.5 -169.66)"/><path d="M808.19,259c0-.4.27-.62.8-.65a3,3,0,0,0,2.35-2.06c.13-.33.32-.5.58-.5s.59.29.6.86v10.92h1.91l.39,0a.74.74,0,0,1,.29.18.66.66,0,0,1,.16.46c0,.42-.28.62-.84.62h-5.27c-.57,0-.85-.2-.85-.62a.66.66,0,0,1,.16-.46.7.7,0,0,1,.3-.18l.39,0h1.91v-8.86a3.31,3.31,0,0,1-2.18.93C808.42,259.58,808.19,259.37,808.19,259Z" transform="translate(-297.5 -169.66)"/><path d="M818.1,268.16a.77.77,0,0,1,.32-.58l4.64-3.9c1.61-1.35,2.42-2.63,2.41-3.84a2.49,2.49,0,0,0-1-2.07,3.76,3.76,0,0,0-2.36-.75,2.83,2.83,0,0,0-1.55.44,2.16,2.16,0,0,0-.91,1.18.83.83,0,0,1,.29.67.87.87,0,0,1-.28.68.91.91,0,0,1-.64.26,1.07,1.07,0,0,1-.65-.24.91.91,0,0,1-.3-.76,3.22,3.22,0,0,1,1.17-2.45,4.22,4.22,0,0,1,3-1.06,5,5,0,0,1,3.32,1.12,3.69,3.69,0,0,1,1.36,3,5.74,5.74,0,0,1-2.3,4.2c-.33.3-1,.89-2.07,1.76l-2.07,1.72h5c0-.25,0-.43,0-.54a.51.51,0,0,1,.19-.3.81.81,0,0,1,.52-.14c.32,0,.52.07.6.22a1.37,1.37,0,0,1,.12.64v.54a1,1,0,0,1-.17.68.94.94,0,0,1-.67.18H819C818.38,268.8,818.1,268.59,818.1,268.16Z" transform="translate(-297.5 -169.66)"/><path d="M462.65,259c0-.4.26-.62.8-.65a3,3,0,0,0,2.34-2.06c.13-.33.33-.5.59-.5s.59.29.59.86v10.92h1.91l.39,0a.62.62,0,0,1,.29.18.61.61,0,0,1,.16.46c0,.42-.28.62-.84.62h-5.27c-.56,0-.84-.2-.84-.62a.61.61,0,0,1,.16-.46.6.6,0,0,1,.3-.18l.38,0h1.92v-8.86a3.32,3.32,0,0,1-2.19.93C462.88,259.58,462.65,259.37,462.65,259Z" transform="translate(-297.5 -169.66)"/><path d="M473.67,259c0-.4.27-.62.8-.65a3,3,0,0,0,2.35-2.06c.13-.33.32-.5.58-.5s.59.29.6.86v10.92h1.9l.39,0a.7.7,0,0,1,.3.18.65.65,0,0,1,.15.46c0,.42-.28.62-.84.62h-5.27c-.56,0-.84-.2-.84-.62a.66.66,0,0,1,.16-.46.7.7,0,0,1,.3-.18l.38,0h1.92v-8.86a3.31,3.31,0,0,1-2.18.93C473.9,259.58,473.67,259.37,473.67,259Z" transform="translate(-297.5 -169.66)"/><path d="M539.56,259c0-.4.26-.62.8-.65a3,3,0,0,0,2.34-2.06c.13-.33.33-.5.59-.5s.59.29.59.86v10.92h1.91l.39,0a.62.62,0,0,1,.29.18.61.61,0,0,1,.16.46c0,.42-.28.62-.84.62h-5.27c-.56,0-.84-.2-.84-.62a.61.61,0,0,1,.16-.46.6.6,0,0,1,.3-.18l.38,0h1.92v-8.86a3.32,3.32,0,0,1-2.19.93C539.79,259.58,539.56,259.37,539.56,259Z" transform="translate(-297.5 -169.66)"/><path d="M549.42,262.37a8.13,8.13,0,0,1,1.32-4.72,3.52,3.52,0,0,1,6.25,0,9.14,9.14,0,0,1,0,9.48,3.5,3.5,0,0,1-6.24,0A8.11,8.11,0,0,1,549.42,262.37Zm1.45-.2a8.23,8.23,0,0,0,.88,3.95c.59,1.09,1.29,1.64,2.12,1.64s1.53-.55,2.12-1.64a8.23,8.23,0,0,0,.88-3.95,6.92,6.92,0,0,0-.9-3.7,2.24,2.24,0,0,0-4.2,0A7,7,0,0,0,550.87,262.17Z" transform="translate(-297.5 -169.66)"/><path d="M582.43,262.53a7.1,7.1,0,0,1,1.69-4.92,5.12,5.12,0,0,1,3.92-1.87,3,3,0,0,1,2.11.64,2,2,0,0,1,.69,1.52,1,1,0,0,1-.27.73.93.93,0,0,1-.66.26.9.9,0,0,1-.67-.27A.88.88,0,0,1,589,258a.86.86,0,0,1,.2-.61A1.58,1.58,0,0,0,588,257a3.68,3.68,0,0,0-2.68,1.28,5.6,5.6,0,0,0-1.42,3.41,4.54,4.54,0,0,1,3.12-1.2,4,4,0,0,1,3,1.23,4.14,4.14,0,0,1,1.21,3,4,4,0,0,1-1.29,3.07,4.31,4.31,0,0,1-3,1.22,3.76,3.76,0,0,1-1.59-.34,4.36,4.36,0,0,1-1.41-1,4.85,4.85,0,0,1-1-2A11.1,11.1,0,0,1,582.43,262.53Zm1.65,1.61a6.35,6.35,0,0,0,.07.65l0,.19,0,.08.05.19.06.19c.5,1.54,1.37,2.31,2.6,2.32a2.81,2.81,0,0,0,2-.84,2.91,2.91,0,0,0,.86-2.17,3,3,0,0,0-.79-2.09,2.6,2.6,0,0,0-2-.87,3.13,3.13,0,0,0-2,.68A2.1,2.1,0,0,0,584.08,264.14Z" transform="translate(-297.5 -169.66)"/><path d="M620.69,265.15a2.82,2.82,0,0,1,.85-2,4.62,4.62,0,0,1,2.08-1.24,4.39,4.39,0,0,1-1.94-1.14,2.37,2.37,0,0,1-.69-1.65,3,3,0,0,1,1.23-2.34,4.59,4.59,0,0,1,3-1,4.68,4.68,0,0,1,3.06,1,3,3,0,0,1,1.22,2.35,2.32,2.32,0,0,1-.68,1.64,4.51,4.51,0,0,1-1.94,1.15,4.62,4.62,0,0,1,2.08,1.24,2.85,2.85,0,0,1,.84,2,3.57,3.57,0,0,1-1.31,2.73,5.16,5.16,0,0,1-6.52,0A3.56,3.56,0,0,1,620.69,265.15Zm1.45,0a2.35,2.35,0,0,0,.92,1.86,3.57,3.57,0,0,0,4.43,0,2.35,2.35,0,0,0,.92-1.86,2.39,2.39,0,0,0-.88-1.81,3.58,3.58,0,0,0-4.5,0A2.38,2.38,0,0,0,622.14,265.13Zm.3-6a1.84,1.84,0,0,0,.84,1.51,3.52,3.52,0,0,0,4,0,1.75,1.75,0,0,0,0-3,3.55,3.55,0,0,0-4,0A1.83,1.83,0,0,0,622.44,259.12Z" transform="translate(-297.5 -169.66)"/><path d="M659.15,265.94a.9.9,0,0,1,.94-1,.87.87,0,0,1,.66.27.88.88,0,0,1,.26.65.92.92,0,0,1-.24.66,2.08,2.08,0,0,0,1.26.93,5.83,5.83,0,0,0,1.75.29A3.17,3.17,0,0,0,666,267a2.35,2.35,0,0,0,0-3.63,3.19,3.19,0,0,0-2.29-.81h-1l-.39,0a.53.53,0,0,1-.29-.17.57.57,0,0,1-.16-.44c0-.27.09-.43.26-.5a6.47,6.47,0,0,1,1.26-.15,3.17,3.17,0,0,0,2-.65,2.28,2.28,0,0,0,.88-1.85,1.46,1.46,0,0,0-.7-1.23,3,3,0,0,0-1.77-.5,3.24,3.24,0,0,0-2.34.66.82.82,0,0,1,.19.56.88.88,0,0,1-.29.68.9.9,0,0,1-.64.27,1,1,0,0,1-.64-.26.89.89,0,0,1-.3-.73,2.06,2.06,0,0,1,1.06-1.79,5.45,5.45,0,0,1,2.94-.67,4.38,4.38,0,0,1,2.84.88,2.64,2.64,0,0,1,1.1,2.11,3.59,3.59,0,0,1-.45,1.72,3.7,3.7,0,0,1-1.3,1.37,4.42,4.42,0,0,1,1.71,1.36,3.28,3.28,0,0,1,.65,2,3.64,3.64,0,0,1-1.27,2.72,4.64,4.64,0,0,1-3.26,1.17,6,6,0,0,1-3.31-.86A2.57,2.57,0,0,1,659.15,265.94Z" transform="translate(-297.5 -169.66)"/><path d="M697.6,257.41v-.9a4,4,0,0,1,0-.42.53.53,0,0,1,.2-.3.79.79,0,0,1,.52-.15c.37,0,.6.11.69.34H706a2.07,2.07,0,0,1,.39,0,.53.53,0,0,1,.29.17.58.58,0,0,1,.16.45.58.58,0,0,1-.07.32,4,4,0,0,1-.39.4c-.32.34-.64.69-1,1.06A15.06,15.06,0,0,0,704.2,260a16.32,16.32,0,0,0-1.19,2.17,15,15,0,0,0-.88,2.74,15.68,15.68,0,0,0-.4,3.3.86.86,0,0,1-.21.63.67.67,0,0,1-.5.21c-.49,0-.74-.33-.74-1a13.85,13.85,0,0,1,.18-2.15,21.5,21.5,0,0,1,.62-2.63,14.12,14.12,0,0,1,1.35-3.06,15.62,15.62,0,0,1,2.2-2.95h-5.54c0,.26,0,.45,0,.55a.52.52,0,0,1-.19.32.79.79,0,0,1-.54.15c-.33,0-.53-.07-.62-.22A1.42,1.42,0,0,1,697.6,257.41Z" transform="translate(-297.5 -169.66)"/><path d="M735.74,264.42a1.25,1.25,0,0,1,.19-.74l4.79-7.52a.93.93,0,0,1,.34-.38,1.68,1.68,0,0,1,.55-.06h.58a.69.69,0,0,1,.86.86V264h1.64l.39,0a.62.62,0,0,1,.29.18.61.61,0,0,1,.16.45c0,.42-.28.63-.84.64h-1.64v2.26h1.3l.39,0a.7.7,0,0,1,.3.18.65.65,0,0,1,.15.46c0,.42-.28.62-.84.62h-3.78c-.56,0-.84-.2-.83-.62a.65.65,0,0,1,.15-.46.68.68,0,0,1,.29-.18l.39,0h1.3v-2.26h-5.29a1,1,0,0,1-.67-.17A1,1,0,0,1,735.74,264.42Zm1.48-.45h4.65v-7.33Z" transform="translate(-297.5 -169.66)"/><path d="M774.71,260A4,4,0,0,1,776,257a4.47,4.47,0,0,1,3.13-1.22,3.77,3.77,0,0,1,1.52.32,4.11,4.11,0,0,1,1.37,1,5,5,0,0,1,1,2,11.27,11.27,0,0,1,.39,3.14,7.32,7.32,0,0,1-1.6,4.9,4.79,4.79,0,0,1-3.76,1.89,4.69,4.69,0,0,1-1.6-.24,2,2,0,0,1-.95-.61,3.18,3.18,0,0,1-.4-.69,1.73,1.73,0,0,1-.11-.62,1,1,0,0,1,.27-.73.94.94,0,0,1,.67-.27.88.88,0,0,1,.67.28,1,1,0,0,1,.07,1.24,2.21,2.21,0,0,0,1.38.36,3.31,3.31,0,0,0,2.6-1.36,6,6,0,0,0,1.27-3.33,4.56,4.56,0,0,1-3.13,1.2,4,4,0,0,1-3-1.23A4.17,4.17,0,0,1,774.71,260Zm1.44,0a3,3,0,0,0,.79,2.09,2.6,2.6,0,0,0,2,.87,3,3,0,0,0,2.07-.72,2.14,2.14,0,0,0,.81-1.64,2,2,0,0,0,0-.34c0-.16,0-.26,0-.28s0-.08,0-.12a.25.25,0,0,0,0-.08,2.27,2.27,0,0,0-.08-.37c-.06-.2-.16-.45-.28-.75a3.53,3.53,0,0,0-.44-.77,2.23,2.23,0,0,0-1.82-.9,3,3,0,0,0-2.1.84A2.8,2.8,0,0,0,776.15,260Z" transform="translate(-297.5 -169.66)"/><rect class="cls-1" x="345.25" y="312.78" width="38.5" height="32"/><line class="cls-1" x1="345.25" y1="312.78" x2="384.25" y2="344.78"/><line class="cls-1" x1="384.25" y1="312.78" x2="345.25" y2="344.78"/><polyline class="cls-1" points="422.75 318.78 422.75 312.78 428.75 312.78"/><line class="cls-2" x1="437.58" y1="312.78" x2="450.83" y2="312.78"/><polyline class="cls-1" points="455.25 312.78 461.25 312.78 461.25 318.78"/><line class="cls-3" x1="461.25" y1="325.45" x2="461.25" y2="335.45"/><polyline class="cls-1" points="461.25 338.78 461.25 344.78 455.25 344.78"/><line class="cls-2" x1="446.42" y1="344.78" x2="433.17" y2="344.78"/><polyline class="cls-1" points="428.75 344.78 422.75 344.78 422.75 338.78"/><line class="cls-3" x1="422.75" y1="332.12" x2="422.75" y2="322.12"/><path d="M730.85,493c0-.41.27-.62.8-.65a3,3,0,0,0,2.35-2.06c.13-.34.32-.5.58-.5s.59.28.6.86v10.92h1.9l.39,0a.54.54,0,0,1,.3.18.65.65,0,0,1,.16.45c0,.42-.28.63-.85.63h-5.27q-.84,0-.84-.63a.65.65,0,0,1,.16-.45.54.54,0,0,1,.3-.18l.38,0h1.92v-8.86a3.35,3.35,0,0,1-2.18.92C731.08,493.67,730.85,493.45,730.85,493Z" transform="translate(-297.5 -169.66)"/><path d="M740.71,496.46a8.11,8.11,0,0,1,1.33-4.72,3.51,3.51,0,0,1,6.24,0,8.07,8.07,0,0,1,1.34,4.75,8.16,8.16,0,0,1-1.33,4.73,3.5,3.5,0,0,1-6.24,0A8.06,8.06,0,0,1,740.71,496.46Zm1.45-.2a8.31,8.31,0,0,0,.88,3.94c.59,1.1,1.3,1.64,2.13,1.64s1.53-.54,2.12-1.64a8.19,8.19,0,0,0,.88-3.94,6.92,6.92,0,0,0-.9-3.7,2.25,2.25,0,0,0-4.21,0A6.91,6.91,0,0,0,742.16,496.26Z" transform="translate(-297.5 -169.66)"/><rect class="cls-1" x="499.75" y="313.78" width="38.5" height="32"/><path d="M807.4,496c0-.41.26-.62.8-.65a3,3,0,0,0,2.34-2.06c.13-.34.33-.5.59-.5s.59.28.59.86v10.92h1.91l.39,0a.49.49,0,0,1,.29.18.61.61,0,0,1,.16.45q0,.63-.84.63h-5.27q-.84,0-.84-.63a.61.61,0,0,1,.16-.45.49.49,0,0,1,.3-.18l.38,0h1.92v-8.86a3.35,3.35,0,0,1-2.19.92C807.63,496.67,807.4,496.45,807.4,496Z" transform="translate(-297.5 -169.66)"/><path d="M818.42,496c0-.41.27-.62.8-.65a3,3,0,0,0,2.35-2.06c.13-.34.32-.5.58-.5s.59.28.6.86v10.92h1.9l.39,0a.54.54,0,0,1,.3.18.64.64,0,0,1,.15.45q0,.63-.84.63h-5.27q-.84,0-.84-.63a.61.61,0,0,1,.16-.45.54.54,0,0,1,.3-.18l.38,0h1.92v-8.86a3.35,3.35,0,0,1-2.18.92C818.65,496.67,818.42,496.45,818.42,496Z" transform="translate(-297.5 -169.66)"/><polyline class="cls-1" points="96.75 318.78 96.75 312.78 102.75 312.78"/><line class="cls-2" x1="111.58" y1="312.78" x2="124.83" y2="312.78"/><polyline class="cls-1" points="129.25 312.78 135.25 312.78 135.25 318.78"/><line class="cls-3" x1="135.25" y1="325.45" x2="135.25" y2="335.45"/><polyline class="cls-1" points="135.25 338.78 135.25 344.78 129.25 344.78"/><line class="cls-2" x1="120.42" y1="344.78" x2="107.17" y2="344.78"/><polyline class="cls-1" points="102.75 344.78 96.75 344.78 96.75 338.78"/><line class="cls-3" x1="96.75" y1="332.12" x2="96.75" y2="322.12"/><path d="M408.76,498.5a1.27,1.27,0,0,1,.2-.74l4.79-7.51a.86.86,0,0,1,.33-.38,1.68,1.68,0,0,1,.55-.06h.58a.69.69,0,0,1,.86.86v7.39h1.64l.39,0a.61.61,0,0,1,.3.18.65.65,0,0,1,.16.45c0,.41-.29.63-.85.63h-1.64v2.27h1.31l.39,0a.56.56,0,0,1,.29.18.65.65,0,0,1,.16.45q0,.63-.84.63h-3.79c-.56,0-.84-.21-.83-.63a.61.61,0,0,1,.16-.45.49.49,0,0,1,.29-.18l.38,0h1.3v-2.27H409.6a.93.93,0,0,1-.67-.17A1,1,0,0,1,408.76,498.5Zm1.48-.44h4.65v-7.33Z" transform="translate(-297.5 -169.66)"/><rect class="cls-1" x="19.25" y="312.78" width="39" height="32"/><path d="M331.9,501.53a.94.94,0,0,1,.27-.73,1,1,0,0,1,.67-.26.92.92,0,0,1,.92.93.92.92,0,0,1-.24.65,2.09,2.09,0,0,0,1.26.94,5.8,5.8,0,0,0,1.75.28,3.13,3.13,0,0,0,2.22-.79,2.4,2.4,0,0,0,.86-1.81,2.46,2.46,0,0,0-.85-1.82,3.18,3.18,0,0,0-2.29-.8h-1l-.39,0a.55.55,0,0,1-.29-.18.54.54,0,0,1-.16-.43c0-.27.09-.44.26-.5a5.52,5.52,0,0,1,1.26-.16,3.17,3.17,0,0,0,1.95-.64,2.31,2.31,0,0,0,.88-1.85,1.46,1.46,0,0,0-.7-1.23,3,3,0,0,0-1.77-.5,3.29,3.29,0,0,0-2.34.65.86.86,0,0,1,.19.57.88.88,0,0,1-.29.68.89.89,0,0,1-.64.26.94.94,0,0,1-.64-.25.9.9,0,0,1-.3-.73,2,2,0,0,1,1.06-1.79,5.45,5.45,0,0,1,2.94-.67,4.38,4.38,0,0,1,2.84.88,2.63,2.63,0,0,1,1.1,2.11A3.55,3.55,0,0,1,340,496a3.65,3.65,0,0,1-1.3,1.38,4.33,4.33,0,0,1,1.71,1.36,3.28,3.28,0,0,1,.65,2,3.6,3.6,0,0,1-1.27,2.71,4.6,4.6,0,0,1-3.26,1.18,6,6,0,0,1-3.31-.86A2.58,2.58,0,0,1,331.9,501.53Z" transform="translate(-297.5 -169.66)"/><rect class="cls-4" x="288.5" y="313.28" width="38.25" height="32"/><polygon class="cls-1" points="212 345.28 173.75 345.28 173.75 313.28 212 313.28 250.25 313.28 288.5 313.28 326.75 313.28 326.75 345.28 288.5 345.28 250.25 345.28 212 345.28"/><line class="cls-1" x1="288.5" y1="313.28" x2="288.5" y2="345.28"/><line class="cls-1" x1="250.25" y1="313.28" x2="250.25" y2="345.28"/><line class="cls-1" x1="212" y1="313.28" x2="212" y2="345.28"/><path d="M523.37,501.91a.9.9,0,0,1,.31-.78,1.1,1.1,0,0,1,.65-.23,1,1,0,0,1,.64.25.91.91,0,0,1,.28.69.9.9,0,0,1-.28.68,2.58,2.58,0,0,0,2.53,1.32,3.34,3.34,0,0,0,2.3-.85,2.66,2.66,0,0,0,1-2.09,3.14,3.14,0,0,0-.72-2,2.39,2.39,0,0,0-1.95-.89,3.24,3.24,0,0,0-2.65,1.06.73.73,0,0,1-.62.3.65.65,0,0,1-.47-.15.49.49,0,0,1-.18-.29,3.87,3.87,0,0,1,0-.42v-5.58a1,1,0,0,1,.17-.68.93.93,0,0,1,.67-.18h5.65l.39,0a.62.62,0,0,1,.29.18.58.58,0,0,1,.16.45q0,.63-.84.63h-5v4a5.26,5.26,0,0,1,2.51-.61A3.81,3.81,0,0,1,531,498a4.19,4.19,0,0,1,1.16,2.92,3.92,3.92,0,0,1-1.37,3,4.8,4.8,0,0,1-3.33,1.24,4.57,4.57,0,0,1-2.94-.95A2.83,2.83,0,0,1,523.37,501.91Z" transform="translate(-297.5 -169.66)"/><path d="M600.68,498.62a7.08,7.08,0,0,1,1.69-4.92,5.12,5.12,0,0,1,3.92-1.87,3,3,0,0,1,2.11.64,2,2,0,0,1,.69,1.52.94.94,0,0,1-.27.72.89.89,0,0,1-.66.26.9.9,0,0,1-.67-.27.88.88,0,0,1-.26-.65.83.83,0,0,1,.2-.6,1.58,1.58,0,0,0-1.16-.34,3.68,3.68,0,0,0-2.68,1.28,5.6,5.6,0,0,0-1.42,3.41,4.55,4.55,0,0,1,3.12-1.21,4,4,0,0,1,3,1.24,4.13,4.13,0,0,1,1.21,3,4.06,4.06,0,0,1-1.29,3.07,4.31,4.31,0,0,1-3,1.22,3.91,3.91,0,0,1-1.59-.34,4.51,4.51,0,0,1-1.41-1,4.9,4.9,0,0,1-1-2A11,11,0,0,1,600.68,498.62Zm1.65,1.6a6.2,6.2,0,0,0,.07.66l0,.19,0,.08s0,.1.05.19a1.83,1.83,0,0,1,.06.19c.5,1.54,1.37,2.31,2.6,2.31a2.81,2.81,0,0,0,2-.84,2.9,2.9,0,0,0,.86-2.16,3,3,0,0,0-.79-2.09,2.6,2.6,0,0,0-2-.87,3.08,3.08,0,0,0-2,.68A2.08,2.08,0,0,0,602.33,500.22Z" transform="translate(-297.5 -169.66)"/><path d="M484.94,501.24a2.85,2.85,0,0,1,.84-2,4.62,4.62,0,0,1,2.09-1.24,4.59,4.59,0,0,1-1.94-1.14,2.39,2.39,0,0,1-.69-1.65,3,3,0,0,1,1.23-2.34,5.11,5.11,0,0,1,6.11,0,3,3,0,0,1,1.22,2.35,2.34,2.34,0,0,1-.68,1.64,4.61,4.61,0,0,1-1.94,1.15,4.53,4.53,0,0,1,2.08,1.24,2.85,2.85,0,0,1,.84,2,3.54,3.54,0,0,1-1.31,2.72,5.13,5.13,0,0,1-6.52,0A3.53,3.53,0,0,1,484.94,501.24Zm1.45,0a2.38,2.38,0,0,0,.92,1.86,3.61,3.61,0,0,0,4.43,0,2.36,2.36,0,0,0,.91-1.86,2.41,2.41,0,0,0-.87-1.82,3.24,3.24,0,0,0-2.25-.78,3.2,3.2,0,0,0-2.25.8A2.38,2.38,0,0,0,486.39,501.22Zm.3-6a1.81,1.81,0,0,0,.84,1.5,3.52,3.52,0,0,0,4,0,1.81,1.81,0,0,0,.84-1.5,1.84,1.84,0,0,0-.82-1.47,3.55,3.55,0,0,0-4,0A1.83,1.83,0,0,0,486.69,495.21Z" transform="translate(-297.5 -169.66)"/><path d="M561.85,493.5v-.9a4.26,4.26,0,0,1,0-.43.54.54,0,0,1,.2-.29.74.74,0,0,1,.52-.16c.37,0,.6.12.69.34h6.92l.39,0a.62.62,0,0,1,.29.18.58.58,0,0,1,.16.45.53.53,0,0,1-.07.31,3.76,3.76,0,0,1-.39.41c-.32.33-.64.69-1,1.05a14.35,14.35,0,0,0-1.17,1.6,15.72,15.72,0,0,0-1.19,2.17,14.87,14.87,0,0,0-.88,2.73,15.77,15.77,0,0,0-.4,3.31.86.86,0,0,1-.21.63.67.67,0,0,1-.5.21c-.49,0-.74-.33-.74-1a13.85,13.85,0,0,1,.18-2.15,21.08,21.08,0,0,1,.62-2.63,14.18,14.18,0,0,1,1.35-3.07,15.94,15.94,0,0,1,2.2-3h-5.54c0,.27,0,.45,0,.56a.5.5,0,0,1-.19.31.74.74,0,0,1-.54.16c-.33,0-.53-.08-.62-.22A1.42,1.42,0,0,1,561.85,493.5Z" transform="translate(-297.5 -169.66)"/><polyline class="cls-1" points="212 397.48 212 391.48 218 391.48"/><line class="cls-2" x1="226.83" y1="391.48" x2="240.08" y2="391.48"/><polyline class="cls-1" points="244.5 391.48 250.5 391.48 250.5 397.48"/><line class="cls-3" x1="250.5" y1="404.14" x2="250.5" y2="414.14"/><polyline class="cls-1" points="250.5 417.48 250.5 423.48 244.5 423.48"/><line class="cls-2" x1="235.67" y1="423.48" x2="222.42" y2="423.48"/><polyline class="cls-1" points="218 423.48 212 423.48 212 417.48"/><line class="cls-3" x1="212" y1="410.81" x2="212" y2="400.81"/><path d="M524.53,575.31a7.09,7.09,0,0,1,1.68-4.92,5.16,5.16,0,0,1,3.93-1.87,3.07,3.07,0,0,1,2.1.64,2,2,0,0,1,.69,1.53,1,1,0,0,1-.27.72.93.93,0,0,1-.66.26.9.9,0,0,1-.67-.27.92.92,0,0,1-.26-.65.82.82,0,0,1,.21-.61,1.66,1.66,0,0,0-1.16-.34,3.66,3.66,0,0,0-2.69,1.29,5.57,5.57,0,0,0-1.42,3.4,4.56,4.56,0,0,1,3.12-1.2,3.94,3.94,0,0,1,3,1.24,4.11,4.11,0,0,1,1.21,3A4,4,0,0,1,532,580.6a4.27,4.27,0,0,1-3,1.22,3.76,3.76,0,0,1-1.59-.34,4.36,4.36,0,0,1-1.41-1,5,5,0,0,1-1-2A11.07,11.07,0,0,1,524.53,575.31Zm1.65,1.61a5.58,5.58,0,0,0,.06.66l0,.18,0,.08,0,.19.06.19c.51,1.54,1.37,2.31,2.61,2.32a2.8,2.8,0,0,0,2-.84,2.9,2.9,0,0,0,.86-2.16,3.06,3.06,0,0,0-.79-2.1,2.6,2.6,0,0,0-2-.87,3.13,3.13,0,0,0-2,.68A2.09,2.09,0,0,0,526.18,576.92Z" transform="translate(-297.5 -169.66)"/><rect class="cls-1" x="134.5" y="391.48" width="39" height="32"/><path d="M446.62,580.6a.88.88,0,0,1,.31-.77,1,1,0,0,1,.65-.23.92.92,0,0,1,.64.25,1,1,0,0,1,0,1.37,2.58,2.58,0,0,0,2.53,1.32,3.34,3.34,0,0,0,2.3-.85,2.69,2.69,0,0,0,.95-2.09,3.1,3.1,0,0,0-.72-2,2.36,2.36,0,0,0-1.95-.89,3.27,3.27,0,0,0-2.65,1,.74.74,0,0,1-.62.31.65.65,0,0,1-.47-.15.51.51,0,0,1-.18-.3,3.81,3.81,0,0,1,0-.41v-5.58a1,1,0,0,1,.17-.68.93.93,0,0,1,.67-.18h5.65l.39,0a.53.53,0,0,1,.29.17.61.61,0,0,1,.16.45c0,.42-.28.63-.84.64h-5v4a5.39,5.39,0,0,1,2.51-.62,3.81,3.81,0,0,1,2.94,1.26,4.23,4.23,0,0,1,1.16,2.93,3.9,3.9,0,0,1-1.37,3,4.76,4.76,0,0,1-3.33,1.24,4.51,4.51,0,0,1-2.94-1A2.83,2.83,0,0,1,446.62,580.6Z" transform="translate(-297.5 -169.66)"/><rect class="cls-4" x="327.5" y="391.48" width="38.5" height="32"/><polygon class="cls-1" points="327.5 423.48 289 423.48 289 391.48 327.5 391.48 366 391.48 366 423.48 327.5 423.48"/><line class="cls-1" x1="327.5" y1="391.48" x2="327.5" y2="423.48"/><path d="M639.69,579.94a2.8,2.8,0,0,1,.85-2,4.55,4.55,0,0,1,2.08-1.25,4.39,4.39,0,0,1-1.94-1.14,2.35,2.35,0,0,1-.69-1.64,3,3,0,0,1,1.23-2.35,4.59,4.59,0,0,1,3-1,4.68,4.68,0,0,1,3.06,1,3,3,0,0,1,1.22,2.36,2.31,2.31,0,0,1-.68,1.63,4.51,4.51,0,0,1-1.94,1.15,4.55,4.55,0,0,1,2.08,1.25,2.83,2.83,0,0,1,.84,2,3.57,3.57,0,0,1-1.31,2.72,5.16,5.16,0,0,1-6.52,0A3.56,3.56,0,0,1,639.69,579.94Zm1.45,0a2.34,2.34,0,0,0,.92,1.85,3.57,3.57,0,0,0,4.43,0,2.34,2.34,0,0,0,.92-1.85,2.41,2.41,0,0,0-.88-1.82,3.2,3.2,0,0,0-2.25-.79,3.24,3.24,0,0,0-2.25.8A2.4,2.4,0,0,0,641.14,579.92Zm.3-6a1.83,1.83,0,0,0,.84,1.5,3.52,3.52,0,0,0,4,0,1.83,1.83,0,0,0,.84-1.5,1.88,1.88,0,0,0-.82-1.48,3.55,3.55,0,0,0-4,0A1.86,1.86,0,0,0,641.44,573.91Z" transform="translate(-297.5 -169.66)"/><path d="M600.6,572.19v-.9a4,4,0,0,1,0-.42.53.53,0,0,1,.2-.3.79.79,0,0,1,.52-.15c.37,0,.6.11.69.34H609l.39,0a.53.53,0,0,1,.29.17.61.61,0,0,1,.16.45.56.56,0,0,1-.07.32,3.76,3.76,0,0,1-.39.41q-.48.5-1,1a15.06,15.06,0,0,0-1.17,1.59,16.32,16.32,0,0,0-1.19,2.17,15.26,15.26,0,0,0-.88,2.74,15.68,15.68,0,0,0-.4,3.3.86.86,0,0,1-.21.63.67.67,0,0,1-.5.21c-.49,0-.74-.33-.74-1a14,14,0,0,1,.18-2.15,21,21,0,0,1,.62-2.62,14.18,14.18,0,0,1,1.35-3.07,15.62,15.62,0,0,1,2.2-3h-5.54c0,.26,0,.45,0,.56a.53.53,0,0,1-.19.31.79.79,0,0,1-.54.16c-.33,0-.53-.08-.62-.23A1.39,1.39,0,0,1,600.6,572.19Z" transform="translate(-297.5 -169.66)"/><polyline class="cls-1" points="308 475.84 308 469.84 314 469.84"/><line class="cls-2" x1="322.83" y1="469.84" x2="336.08" y2="469.84"/><polyline class="cls-1" points="340.5 469.84 346.5 469.84 346.5 475.84"/><line class="cls-3" x1="346.5" y1="482.51" x2="346.5" y2="492.51"/><polyline class="cls-1" points="346.5 495.84 346.5 501.84 340.5 501.84"/><line class="cls-2" x1="331.67" y1="501.84" x2="318.42" y2="501.84"/><polyline class="cls-1" points="314 501.84 308 501.84 308 495.84"/><line class="cls-3" x1="308" y1="489.17" x2="308" y2="479.17"/><path d="M620.33,656.3a2.85,2.85,0,0,1,.84-2,4.59,4.59,0,0,1,2.08-1.24,4.46,4.46,0,0,1-1.93-1.15,2.35,2.35,0,0,1-.69-1.64,3,3,0,0,1,1.22-2.34,5.09,5.09,0,0,1,6.11,0,3,3,0,0,1,1.23,2.36,2.34,2.34,0,0,1-.68,1.63,4.56,4.56,0,0,1-2,1.16,4.57,4.57,0,0,1,2.09,1.24,2.85,2.85,0,0,1,.84,2,3.52,3.52,0,0,1-1.32,2.72,5.15,5.15,0,0,1-6.51,0A3.5,3.5,0,0,1,620.33,656.3Zm1.45,0a2.33,2.33,0,0,0,.91,1.85,3.34,3.34,0,0,0,2.22.77,3.3,3.3,0,0,0,2.22-.77,2.33,2.33,0,0,0,.91-1.85,2.4,2.4,0,0,0-.87-1.82,3.6,3.6,0,0,0-4.51,0A2.4,2.4,0,0,0,621.78,656.28Zm.29-6a1.81,1.81,0,0,0,.84,1.5,3.32,3.32,0,0,0,2,.62,3.27,3.27,0,0,0,2-.62,1.74,1.74,0,0,0,0-3,3.17,3.17,0,0,0-2-.63,3.21,3.21,0,0,0-2,.63A1.83,1.83,0,0,0,622.07,650.27Z" transform="translate(-297.5 -169.66)"/><rect class="cls-1" x="385" y="469.51" width="38.5" height="32"/><line class="cls-1" x1="385" y1="469.51" x2="424" y2="501.51"/><line class="cls-1" x1="424" y1="469.51" x2="385" y2="501.51"/><rect class="cls-1" x="231" y="469.51" width="38.5" height="32"/><path d="M543.6,651.55v-.89a4.26,4.26,0,0,1,0-.43.53.53,0,0,1,.2-.3.79.79,0,0,1,.52-.15c.37,0,.6.12.69.34H552l.39,0a.55.55,0,0,1,.29.18.58.58,0,0,1,.16.45.55.55,0,0,1-.07.31,3.76,3.76,0,0,1-.39.41q-.48.5-1,1a15.06,15.06,0,0,0-1.17,1.59A17,17,0,0,0,549,656.3a15.26,15.26,0,0,0-.88,2.74,15.69,15.69,0,0,0-.4,3.31.83.83,0,0,1-.21.62.67.67,0,0,1-.5.21c-.49,0-.74-.33-.74-1a14,14,0,0,1,.18-2.15,21.39,21.39,0,0,1,.62-2.62,14.18,14.18,0,0,1,1.35-3.07,15.62,15.62,0,0,1,2.2-3h-5.54c0,.27,0,.45,0,.56a.53.53,0,0,1-.19.31.74.74,0,0,1-.54.16c-.33,0-.53-.08-.62-.23A1.39,1.39,0,0,1,543.6,651.55Z" transform="translate(-297.5 -169.66)"/><polyline class="cls-1" points="326.25 241.09 326.25 235.09 332.25 235.09"/><line class="cls-2" x1="341.08" y1="235.09" x2="354.33" y2="235.09"/><polyline class="cls-1" points="358.75 235.09 364.75 235.09 364.75 241.09"/><line class="cls-3" x1="364.75" y1="247.75" x2="364.75" y2="257.75"/><polyline class="cls-1" points="364.75 261.09 364.75 267.09 358.75 267.09"/><line class="cls-2" x1="349.92" y1="267.09" x2="336.67" y2="267.09"/><polyline class="cls-1" points="332.25 267.09 326.25 267.09 326.25 261.09"/><line class="cls-3" x1="326.25" y1="254.42" x2="326.25" y2="244.42"/><path d="M638.78,416.42a4,4,0,0,1,1.32-3.07,4.47,4.47,0,0,1,3.13-1.22,3.77,3.77,0,0,1,1.52.32,4.11,4.11,0,0,1,1.37,1,5,5,0,0,1,1,2,11.27,11.27,0,0,1,.39,3.14,7.3,7.3,0,0,1-1.6,4.9,4.79,4.79,0,0,1-3.76,1.89,5,5,0,0,1-1.6-.23,2,2,0,0,1-1-.62,2.65,2.65,0,0,1-.4-.69,1.75,1.75,0,0,1-.12-.62,1,1,0,0,1,.28-.73.94.94,0,0,1,.67-.27.87.87,0,0,1,.66.28.89.89,0,0,1,.27.65.91.91,0,0,1-.19.59,2.19,2.19,0,0,0,1.38.36,3.25,3.25,0,0,0,2.59-1.36,5.93,5.93,0,0,0,1.28-3.33,4.56,4.56,0,0,1-3.13,1.2,4,4,0,0,1-2.95-1.23A4.17,4.17,0,0,1,638.78,416.42Zm1.44,0a3,3,0,0,0,.79,2.09,2.58,2.58,0,0,0,2,.87,3,3,0,0,0,2.07-.72,2.14,2.14,0,0,0,.81-1.64,2,2,0,0,0,0-.34,2.31,2.31,0,0,1,0-.28.49.49,0,0,1,0-.12.25.25,0,0,0,0-.08,1.75,1.75,0,0,0-.09-.37,7.3,7.3,0,0,0-.27-.75,3.62,3.62,0,0,0-.44-.76,2.22,2.22,0,0,0-1.82-.91,3,3,0,0,0-2.11.84A2.84,2.84,0,0,0,640.22,416.42Z" transform="translate(-297.5 -169.66)"/><rect class="cls-4" x="441.75" y="235.09" width="38.5" height="32"/><polygon class="cls-1" points="441.75 267.09 403.25 267.09 403.25 235.09 441.75 235.09 480.25 235.09 480.25 267.09 441.75 267.09"/><line class="cls-1" x1="441.75" y1="235.09" x2="441.75" y2="267.09"/><path d="M710.9,415.34c0-.4.26-.62.8-.65a3,3,0,0,0,2.34-2.06c.13-.33.33-.5.59-.5s.59.29.59.86v10.92h1.91l.39,0a.62.62,0,0,1,.29.18.61.61,0,0,1,.16.46c0,.42-.28.62-.84.62h-5.27c-.56,0-.84-.2-.84-.62a.61.61,0,0,1,.16-.46.6.6,0,0,1,.3-.18l.38,0h1.92v-8.86a3.32,3.32,0,0,1-2.19.93C711.13,416,710.9,415.76,710.9,415.34Z" transform="translate(-297.5 -169.66)"/><path d="M721.92,415.34c0-.4.27-.62.8-.65a3,3,0,0,0,2.35-2.06c.13-.33.32-.5.58-.5s.59.29.6.86v10.92h1.9l.39,0a.7.7,0,0,1,.3.18.65.65,0,0,1,.15.46c0,.42-.28.62-.84.62h-5.27c-.56,0-.84-.2-.84-.62a.61.61,0,0,1,.16-.46.7.7,0,0,1,.3-.18l.38,0h1.92v-8.86a3.31,3.31,0,0,1-2.18.93C722.15,416,721.92,415.76,721.92,415.34Z" transform="translate(-297.5 -169.66)"/><path d="M749.81,415.34c0-.4.26-.62.8-.65a3,3,0,0,0,2.34-2.06c.13-.33.33-.5.59-.5s.59.29.59.86v10.92H756l.39,0a.62.62,0,0,1,.29.18.61.61,0,0,1,.16.46c0,.42-.28.62-.84.62h-5.27c-.56,0-.84-.2-.84-.62a.61.61,0,0,1,.16-.46.62.62,0,0,1,.29-.18l.39,0h1.92v-8.86a3.32,3.32,0,0,1-2.19.93C750,416,749.81,415.76,749.81,415.34Z" transform="translate(-297.5 -169.66)"/><path d="M759.67,418.77A8.14,8.14,0,0,1,761,414a3.52,3.52,0,0,1,6.25,0,9.14,9.14,0,0,1,0,9.48,3.5,3.5,0,0,1-6.24,0A8.1,8.1,0,0,1,759.67,418.77Zm1.45-.21a8.23,8.23,0,0,0,.88,3.95c.59,1.09,1.29,1.64,2.12,1.64s1.53-.55,2.12-1.64a8.23,8.23,0,0,0,.88-3.95,6.92,6.92,0,0,0-.9-3.7,2.24,2.24,0,0,0-4.2,0A7,7,0,0,0,761.12,418.56Z" transform="translate(-297.5 -169.66)"/><rect class="cls-4" x="249.5" y="235.09" width="38.25" height="32"/><polygon class="cls-1" points="96.5 267.09 58.25 267.09 58.25 235.09 96.5 235.09 134.75 235.09 173 235.09 211.25 235.09 249.5 235.09 287.75 235.09 287.75 267.09 249.5 267.09 211.25 267.09 173 267.09 134.75 267.09 96.5 267.09"/><line class="cls-1" x1="249.5" y1="235.09" x2="249.5" y2="267.09"/><line class="cls-1" x1="211.25" y1="235.09" x2="211.25" y2="267.09"/><line class="cls-1" x1="173" y1="235.09" x2="173" y2="267.09"/><line class="cls-1" x1="134.75" y1="235.09" x2="134.75" y2="267.09"/><line class="cls-1" x1="96.5" y1="235.09" x2="96.5" y2="267.09"/><path d="M370.37,422.21a.88.88,0,0,1,.31-.77,1,1,0,0,1,.65-.23.92.92,0,0,1,.64.25,1,1,0,0,1,0,1.37,2.58,2.58,0,0,0,2.53,1.32,3.34,3.34,0,0,0,2.3-.85,2.69,2.69,0,0,0,.95-2.09,3.1,3.1,0,0,0-.72-2,2.37,2.37,0,0,0-1.95-.9,3.27,3.27,0,0,0-2.65,1.06.77.77,0,0,1-.62.31.61.61,0,0,1-.47-.16.49.49,0,0,1-.18-.29,3.81,3.81,0,0,1,0-.41v-5.58a1,1,0,0,1,.17-.68.93.93,0,0,1,.67-.18h5.65a2.07,2.07,0,0,1,.39,0,.53.53,0,0,1,.29.17.58.58,0,0,1,.16.45c0,.42-.28.63-.84.64h-5v4a5.27,5.27,0,0,1,2.51-.62,3.81,3.81,0,0,1,2.94,1.26,4.21,4.21,0,0,1,1.16,2.93,3.9,3.9,0,0,1-1.37,3,4.76,4.76,0,0,1-3.33,1.24,4.57,4.57,0,0,1-2.94-.95A2.83,2.83,0,0,1,370.37,422.21Z" transform="translate(-297.5 -169.66)"/><path d="M408.68,418.92a7.1,7.1,0,0,1,1.69-4.92,5.12,5.12,0,0,1,3.93-1.87,3,3,0,0,1,2.1.64,2,2,0,0,1,.69,1.52,1,1,0,0,1-.27.73.93.93,0,0,1-.66.26.9.9,0,0,1-.67-.27.88.88,0,0,1-.26-.65.86.86,0,0,1,.2-.61,1.62,1.62,0,0,0-1.16-.34,3.66,3.66,0,0,0-2.68,1.29,5.54,5.54,0,0,0-1.42,3.4,4.54,4.54,0,0,1,3.12-1.2,4,4,0,0,1,2.95,1.23,4.14,4.14,0,0,1,1.21,3,4,4,0,0,1-1.29,3.07,4.31,4.31,0,0,1-3.05,1.22,3.76,3.76,0,0,1-1.59-.34,4.36,4.36,0,0,1-1.41-1,4.85,4.85,0,0,1-1-2A11.1,11.1,0,0,1,408.68,418.92Zm1.66,1.61a5.76,5.76,0,0,0,.06.66l0,.18,0,.08.05.19.06.19c.51,1.54,1.37,2.31,2.6,2.32a2.81,2.81,0,0,0,2-.84,2.91,2.91,0,0,0,.86-2.17,3,3,0,0,0-.79-2.09,2.6,2.6,0,0,0-2-.87,3.13,3.13,0,0,0-2,.68A2.09,2.09,0,0,0,410.34,420.53Z" transform="translate(-297.5 -169.66)"/><path d="M446.94,421.54a2.86,2.86,0,0,1,.84-2,4.71,4.71,0,0,1,2.09-1.24,4.39,4.39,0,0,1-1.94-1.14,2.37,2.37,0,0,1-.69-1.65,3,3,0,0,1,1.23-2.34,4.59,4.59,0,0,1,3-1,4.68,4.68,0,0,1,3.06,1,3,3,0,0,1,1.22,2.35,2.32,2.32,0,0,1-.68,1.64,4.51,4.51,0,0,1-1.94,1.15,4.62,4.62,0,0,1,2.08,1.24,2.86,2.86,0,0,1,.84,2,3.57,3.57,0,0,1-1.31,2.73,5.16,5.16,0,0,1-6.52,0A3.56,3.56,0,0,1,446.94,421.54Zm1.45,0a2.35,2.35,0,0,0,.92,1.86,3.57,3.57,0,0,0,4.43,0,2.34,2.34,0,0,0,.91-1.86,2.39,2.39,0,0,0-.87-1.81,3.2,3.2,0,0,0-2.25-.79,3.24,3.24,0,0,0-2.25.8A2.38,2.38,0,0,0,448.39,421.52Zm.3-6a1.84,1.84,0,0,0,.84,1.51,3.52,3.52,0,0,0,4,0,1.75,1.75,0,0,0,0-3,3.55,3.55,0,0,0-4,0A1.83,1.83,0,0,0,448.69,415.51Z" transform="translate(-297.5 -169.66)"/><path d="M485.4,422.33a.9.9,0,0,1,.94-1,.87.87,0,0,1,.66.27.88.88,0,0,1,.26.65.92.92,0,0,1-.24.66,2.08,2.08,0,0,0,1.26.93,5.83,5.83,0,0,0,1.75.29,3.13,3.13,0,0,0,2.22-.79,2.35,2.35,0,0,0,0-3.63,3.19,3.19,0,0,0-2.29-.81h-1l-.39,0a.53.53,0,0,1-.29-.17.57.57,0,0,1-.16-.44.48.48,0,0,1,.26-.5,6.47,6.47,0,0,1,1.26-.15,3.17,3.17,0,0,0,1.95-.65,2.28,2.28,0,0,0,.88-1.85,1.47,1.47,0,0,0-.7-1.23,3,3,0,0,0-1.77-.5,3.24,3.24,0,0,0-2.34.66.82.82,0,0,1,.19.56.88.88,0,0,1-.29.68.9.9,0,0,1-.64.27,1,1,0,0,1-.64-.25.92.92,0,0,1-.3-.74,2.06,2.06,0,0,1,1.06-1.79,5.54,5.54,0,0,1,2.94-.67,4.38,4.38,0,0,1,2.84.88,2.64,2.64,0,0,1,1.1,2.11,3.59,3.59,0,0,1-.45,1.72,3.7,3.7,0,0,1-1.3,1.37,4.36,4.36,0,0,1,1.71,1.37,3.23,3.23,0,0,1,.65,2,3.64,3.64,0,0,1-1.27,2.72,4.64,4.64,0,0,1-3.26,1.17,5.93,5.93,0,0,1-3.31-.86A2.57,2.57,0,0,1,485.4,422.33Z" transform="translate(-297.5 -169.66)"/><path d="M523.85,413.8v-.9a4,4,0,0,1,0-.42.53.53,0,0,1,.2-.3.79.79,0,0,1,.52-.15c.37,0,.6.11.69.34h6.92a2.07,2.07,0,0,1,.39,0,.53.53,0,0,1,.29.17.58.58,0,0,1,.16.45.58.58,0,0,1-.07.32,3.15,3.15,0,0,1-.39.4c-.32.34-.64.69-1,1.06a15.06,15.06,0,0,0-1.17,1.59,16.32,16.32,0,0,0-1.19,2.17,15,15,0,0,0-.88,2.74,15.68,15.68,0,0,0-.4,3.3.86.86,0,0,1-.21.63.67.67,0,0,1-.5.21c-.49,0-.74-.33-.74-1a13.85,13.85,0,0,1,.18-2.15,21,21,0,0,1,.62-2.62,14,14,0,0,1,1.35-3.07,15.62,15.62,0,0,1,2.2-3h-5.54c0,.26,0,.45,0,.55a.52.52,0,0,1-.19.32.79.79,0,0,1-.54.15c-.33,0-.53-.07-.62-.22A1.42,1.42,0,0,1,523.85,413.8Z" transform="translate(-297.5 -169.66)"/><path d="M562,420.81a1.25,1.25,0,0,1,.19-.74l4.79-7.52a.93.93,0,0,1,.34-.38,1.65,1.65,0,0,1,.54-.06h.59a.69.69,0,0,1,.86.86v7.4h1.64a2.07,2.07,0,0,1,.39,0,.53.53,0,0,1,.29.17.61.61,0,0,1,.16.45c0,.42-.28.63-.84.64H569.3v2.26h1.3l.39,0a.7.7,0,0,1,.3.18.65.65,0,0,1,.15.46c0,.42-.28.62-.84.62h-3.78c-.56,0-.84-.2-.83-.62a.65.65,0,0,1,.15-.46.68.68,0,0,1,.29-.18l.39,0h1.3v-2.26h-5.29a1,1,0,0,1-.67-.17A1,1,0,0,1,562,420.81Zm1.48-.44h4.65V413Z" transform="translate(-297.5 -169.66)"/><rect class="cls-1" x="557.5" y="156.89" width="38.5" height="32"/><line class="cls-1" x1="557.5" y1="156.89" x2="596.5" y2="188.89"/><line class="cls-1" x1="596.5" y1="156.89" x2="557.5" y2="188.89"/><polyline class="cls-1" points="480.5 162.89 480.5 156.89 486.5 156.89"/><line class="cls-2" x1="495.33" y1="156.89" x2="508.58" y2="156.89"/><polyline class="cls-1" points="513 156.89 519 156.89 519 162.89"/><line class="cls-3" x1="519" y1="169.56" x2="519" y2="179.56"/><polyline class="cls-1" points="519 182.89 519 188.89 513 188.89"/><line class="cls-2" x1="504.17" y1="188.89" x2="490.92" y2="188.89"/><polyline class="cls-1" points="486.5 188.89 480.5 188.89 480.5 182.89"/><line class="cls-3" x1="480.5" y1="176.22" x2="480.5" y2="166.22"/><path d="M788.6,337.15c0-.41.27-.62.8-.65a3,3,0,0,0,2.35-2.06c.13-.34.32-.5.58-.5s.59.28.6.86v10.92h1.9a2,2,0,0,1,.39,0,.54.54,0,0,1,.3.18.63.63,0,0,1,.16.45c0,.42-.28.63-.85.63h-5.27q-.84,0-.84-.63a.63.63,0,0,1,.16-.45.54.54,0,0,1,.3-.18,2,2,0,0,1,.38,0h1.92v-8.86a3.35,3.35,0,0,1-2.18.92C788.83,337.77,788.6,337.56,788.6,337.15Z" transform="translate(-297.5 -169.66)"/><path d="M798.51,346.35a.77.77,0,0,1,.31-.57l4.65-3.91c1.61-1.34,2.42-2.62,2.41-3.83a2.47,2.47,0,0,0-1-2.07,3.73,3.73,0,0,0-2.35-.75,2.75,2.75,0,0,0-1.55.44,2.19,2.19,0,0,0-.92,1.18.8.8,0,0,1,.3.66.9.9,0,0,1-.28.69,1,1,0,0,1-.64.26,1,1,0,0,1-.65-.24.93.93,0,0,1-.3-.77,3.22,3.22,0,0,1,1.16-2.44,4.26,4.26,0,0,1,3-1.06,5,5,0,0,1,3.32,1.12,3.68,3.68,0,0,1,1.35,3,5.69,5.69,0,0,1-2.29,4.19q-.49.47-2.07,1.77l-2.08,1.72h5c0-.26,0-.43,0-.54a.46.46,0,0,1,.19-.3.75.75,0,0,1,.52-.15c.32,0,.52.08.6.22a1.39,1.39,0,0,1,.11.64v.55a1,1,0,0,1-.16.68,1,1,0,0,1-.68.18h-7.11C798.79,347,798.51,346.78,798.51,346.35Z" transform="translate(-297.5 -169.66)"/><rect class="cls-4" x="403.61" y="156.89" width="38.39" height="32"/><polygon class="cls-1" points="134.89 188.89 96.5 188.89 96.5 156.89 134.89 156.89 173.28 156.89 211.67 156.89 250.06 156.89 288.44 156.89 326.83 156.89 365.22 156.89 403.61 156.89 442 156.89 442 188.89 403.61 188.89 365.22 188.89 326.83 188.89 288.44 188.89 250.06 188.89 211.67 188.89 173.28 188.89 134.89 188.89"/><line class="cls-1" x1="403.61" y1="156.89" x2="403.61" y2="188.89"/><line class="cls-1" x1="365.22" y1="156.89" x2="365.22" y2="188.89"/><line class="cls-1" x1="326.83" y1="156.89" x2="326.83" y2="188.89"/><line class="cls-1" x1="288.44" y1="156.89" x2="288.44" y2="188.89"/><line class="cls-1" x1="250.06" y1="156.89" x2="250.06" y2="188.89"/><line class="cls-1" x1="211.67" y1="156.89" x2="211.67" y2="188.89"/><line class="cls-1" x1="173.28" y1="156.89" x2="173.28" y2="188.89"/><line class="cls-1" x1="134.89" y1="156.89" x2="134.89" y2="188.89"/><path d="M446.62,344a.89.89,0,0,1,.31-.78,1.1,1.1,0,0,1,.65-.23.92.92,0,0,1,.64.25.91.91,0,0,1,.28.69.9.9,0,0,1-.28.68,2.58,2.58,0,0,0,2.53,1.32,3.34,3.34,0,0,0,2.3-.85A2.67,2.67,0,0,0,454,343a3.14,3.14,0,0,0-.72-2,2.39,2.39,0,0,0-1.95-.89,3.27,3.27,0,0,0-2.65,1.05.72.72,0,0,1-.62.31.65.65,0,0,1-.47-.15.49.49,0,0,1-.18-.29,4,4,0,0,1,0-.42V335a1,1,0,0,1,.17-.68.93.93,0,0,1,.67-.18h5.65l.39,0a.55.55,0,0,1,.29.18.58.58,0,0,1,.16.45c0,.41-.28.63-.84.63h-5v4a5.26,5.26,0,0,1,2.51-.61,3.81,3.81,0,0,1,2.94,1.26,4.19,4.19,0,0,1,1.16,2.92,3.88,3.88,0,0,1-1.37,3,4.76,4.76,0,0,1-3.33,1.24,4.56,4.56,0,0,1-2.94-.94A2.85,2.85,0,0,1,446.62,344Z" transform="translate(-297.5 -169.66)"/><path d="M404.15,337.15c0-.41.26-.62.8-.65a3,3,0,0,0,2.34-2.06c.13-.34.33-.5.59-.5s.59.28.59.86v10.92h1.91a2.07,2.07,0,0,1,.39,0,.49.49,0,0,1,.29.18.59.59,0,0,1,.16.45q0,.63-.84.63h-5.27q-.84,0-.84-.63a.59.59,0,0,1,.16-.45.49.49,0,0,1,.3-.18,2,2,0,0,1,.38,0H407v-8.86a3.35,3.35,0,0,1-2.19.92Q404.15,337.77,404.15,337.15Z" transform="translate(-297.5 -169.66)"/><path d="M415.17,337.15c0-.41.27-.62.8-.65a3,3,0,0,0,2.35-2.06c.13-.34.32-.5.58-.5s.59.28.6.86v10.92h1.9a2.07,2.07,0,0,1,.39,0,.54.54,0,0,1,.3.18.63.63,0,0,1,.15.45q0,.63-.84.63h-5.27q-.84,0-.84-.63a.63.63,0,0,1,.16-.45.54.54,0,0,1,.3-.18,2,2,0,0,1,.38,0h1.92v-8.86a3.35,3.35,0,0,1-2.18.92C415.4,337.77,415.17,337.56,415.17,337.15Z" transform="translate(-297.5 -169.66)"/><path d="M481.06,337.15c0-.41.26-.62.8-.65a3,3,0,0,0,2.34-2.06c.13-.34.33-.5.59-.5s.59.28.59.86v10.92h1.91a2.07,2.07,0,0,1,.39,0,.49.49,0,0,1,.29.18.59.59,0,0,1,.16.45q0,.63-.84.63H482q-.84,0-.84-.63a.59.59,0,0,1,.16-.45.49.49,0,0,1,.3-.18,2,2,0,0,1,.38,0h1.92v-8.86a3.35,3.35,0,0,1-2.19.92Q481.06,337.77,481.06,337.15Z" transform="translate(-297.5 -169.66)"/><path d="M490.92,340.57a8.1,8.1,0,0,1,1.32-4.72,3.52,3.52,0,0,1,6.25,0,8.07,8.07,0,0,1,1.33,4.75,8.16,8.16,0,0,1-1.32,4.73,3.51,3.51,0,0,1-6.24,0A8.08,8.08,0,0,1,490.92,340.57Zm1.45-.21a8.2,8.2,0,0,0,.88,3.95c.59,1.1,1.29,1.64,2.12,1.64s1.53-.54,2.12-1.64a8.2,8.2,0,0,0,.88-3.95,6.91,6.91,0,0,0-.9-3.69,2.24,2.24,0,0,0-4.2,0A6.9,6.9,0,0,0,492.37,340.36Z" transform="translate(-297.5 -169.66)"/><path d="M523.93,340.72a7.06,7.06,0,0,1,1.69-4.91,5.12,5.12,0,0,1,3.93-1.87,3,3,0,0,1,2.1.64,2,2,0,0,1,.69,1.52.94.94,0,0,1-.27.72.89.89,0,0,1-.66.26.9.9,0,0,1-.67-.27.88.88,0,0,1-.26-.65.82.82,0,0,1,.2-.6,1.58,1.58,0,0,0-1.16-.34,3.64,3.64,0,0,0-2.68,1.28,5.57,5.57,0,0,0-1.42,3.4,4.54,4.54,0,0,1,3.12-1.2,4,4,0,0,1,3,1.24,4.13,4.13,0,0,1,1.21,3,4,4,0,0,1-1.29,3.06,4.27,4.27,0,0,1-3,1.22,3.9,3.9,0,0,1-1.59-.33,4.67,4.67,0,0,1-1.41-1,4.9,4.9,0,0,1-1-2A11.05,11.05,0,0,1,523.93,340.72Zm1.66,1.61a5.58,5.58,0,0,0,.06.66l0,.18,0,.09s0,.1.05.19a1.3,1.3,0,0,1,.06.19c.51,1.53,1.37,2.31,2.6,2.31a2.81,2.81,0,0,0,2-.84,2.9,2.9,0,0,0,.86-2.16,3,3,0,0,0-.79-2.09,2.6,2.6,0,0,0-2-.87,3.08,3.08,0,0,0-2,.68A2.07,2.07,0,0,0,525.59,342.33Z" transform="translate(-297.5 -169.66)"/><path d="M562.19,343.35a2.85,2.85,0,0,1,.84-2,4.62,4.62,0,0,1,2.09-1.24,4.5,4.5,0,0,1-1.94-1.15,2.35,2.35,0,0,1-.69-1.64,3,3,0,0,1,1.23-2.34,5.11,5.11,0,0,1,6.11,0,3,3,0,0,1,1.22,2.35,2.3,2.3,0,0,1-.68,1.63,4.52,4.52,0,0,1-1.94,1.16,4.53,4.53,0,0,1,2.08,1.24,2.85,2.85,0,0,1,.84,2,3.54,3.54,0,0,1-1.31,2.72,5.16,5.16,0,0,1-6.52,0A3.53,3.53,0,0,1,562.19,343.35Zm1.45,0a2.34,2.34,0,0,0,.92,1.85,3.57,3.57,0,0,0,4.43,0,2.33,2.33,0,0,0,.91-1.85,2.4,2.4,0,0,0-.87-1.82,3.58,3.58,0,0,0-4.5,0A2.41,2.41,0,0,0,563.64,343.33Zm.3-6a1.81,1.81,0,0,0,.84,1.5,3.52,3.52,0,0,0,4,0,1.81,1.81,0,0,0,.84-1.5,1.84,1.84,0,0,0-.82-1.47,3.55,3.55,0,0,0-4,0A1.83,1.83,0,0,0,563.94,337.32Z" transform="translate(-297.5 -169.66)"/><path d="M600.65,344.14a.94.94,0,0,1,.27-.73,1,1,0,0,1,.67-.26.84.84,0,0,1,.66.28.87.87,0,0,1,.26.65.92.92,0,0,1-.24.65,2.13,2.13,0,0,0,1.26.94,5.8,5.8,0,0,0,1.75.28,3.13,3.13,0,0,0,2.22-.79,2.4,2.4,0,0,0,.86-1.81,2.46,2.46,0,0,0-.85-1.82,3.19,3.19,0,0,0-2.29-.81h-1a2.07,2.07,0,0,1-.39,0,.53.53,0,0,1-.29-.17.54.54,0,0,1-.16-.43c0-.27.09-.44.26-.5a5.52,5.52,0,0,1,1.26-.16,3.17,3.17,0,0,0,2-.64,2.31,2.31,0,0,0,.88-1.86,1.45,1.45,0,0,0-.7-1.22,2.94,2.94,0,0,0-1.77-.5,3.29,3.29,0,0,0-2.34.65.85.85,0,0,1,.19.57.88.88,0,0,1-.29.68.93.93,0,0,1-1.28,0,.9.9,0,0,1-.3-.73,2,2,0,0,1,1.06-1.79,5.45,5.45,0,0,1,2.94-.67,4.43,4.43,0,0,1,2.84.87,2.64,2.64,0,0,1,1.1,2.11,3.56,3.56,0,0,1-.45,1.72,3.65,3.65,0,0,1-1.3,1.38,4.33,4.33,0,0,1,1.71,1.36,3.26,3.26,0,0,1,.65,2,3.62,3.62,0,0,1-1.27,2.71,4.64,4.64,0,0,1-3.26,1.17,6,6,0,0,1-3.31-.85A2.58,2.58,0,0,1,600.65,344.14Z" transform="translate(-297.5 -169.66)"/><path d="M639.1,335.6v-.89a4.26,4.26,0,0,1,0-.43.53.53,0,0,1,.2-.3.79.79,0,0,1,.52-.15c.37,0,.6.12.69.34h6.92l.39,0a.55.55,0,0,1,.29.18.58.58,0,0,1,.16.45.53.53,0,0,1-.07.31,3.76,3.76,0,0,1-.39.41c-.32.33-.64.69-1,1a15.06,15.06,0,0,0-1.17,1.59,17,17,0,0,0-1.19,2.17,15.26,15.26,0,0,0-.88,2.74,15.69,15.69,0,0,0-.4,3.31.86.86,0,0,1-.21.63.66.66,0,0,1-.5.2c-.49,0-.74-.33-.74-1a13.73,13.73,0,0,1,.18-2.14,21.08,21.08,0,0,1,.62-2.63,14.18,14.18,0,0,1,1.35-3.07,15.94,15.94,0,0,1,2.2-2.95h-5.54c0,.27,0,.45,0,.56a.5.5,0,0,1-.19.31.74.74,0,0,1-.54.16c-.33,0-.53-.08-.62-.23A1.36,1.36,0,0,1,639.1,335.6Z" transform="translate(-297.5 -169.66)"/><path d="M677.24,342.61a1.27,1.27,0,0,1,.19-.74l4.79-7.51a.86.86,0,0,1,.34-.38,1.65,1.65,0,0,1,.54-.06h.59a1,1,0,0,1,.69.16,1.06,1.06,0,0,1,.17.7v7.39h1.64l.39,0a.49.49,0,0,1,.29.18.59.59,0,0,1,.16.45q0,.62-.84.63h-1.64v2.27h1.3a2.07,2.07,0,0,1,.39,0,.54.54,0,0,1,.3.18.63.63,0,0,1,.15.45q0,.63-.84.63h-3.78c-.56,0-.84-.21-.83-.63a.63.63,0,0,1,.15-.45.52.52,0,0,1,.29-.18,2.18,2.18,0,0,1,.39,0h1.3v-2.27h-5.29a1,1,0,0,1-.67-.17A1,1,0,0,1,677.24,342.61Zm1.48-.44h4.65v-7.33Z" transform="translate(-297.5 -169.66)"/><path d="M716.21,338.22a4,4,0,0,1,1.32-3.06,4.42,4.42,0,0,1,3.13-1.22,3.76,3.76,0,0,1,1.52.31,4.41,4.41,0,0,1,1.37,1,5,5,0,0,1,1,2,11.22,11.22,0,0,1,.39,3.14,7.29,7.29,0,0,1-1.6,4.89,4.79,4.79,0,0,1-3.76,1.89A4.71,4.71,0,0,1,718,347a2,2,0,0,1-.95-.61,3.18,3.18,0,0,1-.4-.69,1.78,1.78,0,0,1-.11-.63,1,1,0,0,1,.27-.73,1,1,0,0,1,.67-.26.9.9,0,0,1,.67.27.94.94,0,0,1,.26.65.87.87,0,0,1-.19.59,2.21,2.21,0,0,0,1.38.36,3.28,3.28,0,0,0,2.6-1.36,5.93,5.93,0,0,0,1.27-3.32,4.56,4.56,0,0,1-3.13,1.2,3.94,3.94,0,0,1-3-1.24A4.14,4.14,0,0,1,716.21,338.22Zm1.44,0a3,3,0,0,0,.79,2.09,2.61,2.61,0,0,0,2,.88,3,3,0,0,0,2.07-.72,2.16,2.16,0,0,0,.81-1.64,2,2,0,0,0,0-.35c0-.16,0-.25,0-.28s0-.08,0-.11a.28.28,0,0,0,0-.08,2.3,2.3,0,0,0-.08-.38c-.06-.19-.16-.44-.28-.74a3.31,3.31,0,0,0-.44-.77,2.23,2.23,0,0,0-1.82-.9,3,3,0,0,0-2.1.84A2.8,2.8,0,0,0,717.65,338.22Z" transform="translate(-297.5 -169.66)"/><rect class="cls-4" x="461.58" y="0.5" width="38.42" height="32"/><polygon class="cls-1" points="77.42 32.5 39 32.5 39 0.5 77.42 0.5 115.83 0.5 154.25 0.5 192.67 0.5 231.08 0.5 269.5 0.5 307.92 0.5 346.33 0.5 384.75 0.5 423.17 0.5 461.58 0.5 500 0.5 500 32.5 461.58 32.5 423.17 32.5 384.75 32.5 346.33 32.5 307.92 32.5 269.5 32.5 231.08 32.5 192.67 32.5 154.25 32.5 115.83 32.5 77.42 32.5"/><line class="cls-1" x1="461.58" y1="32.5" x2="461.58" y2="0.5"/><line class="cls-1" x1="423.17" y1="0.5" x2="423.17" y2="32.5"/><line class="cls-1" x1="384.75" y1="0.5" x2="384.75" y2="32.5"/><line class="cls-1" x1="346.33" y1="0.5" x2="346.33" y2="32.5"/><line class="cls-1" x1="307.92" y1="0.5" x2="307.92" y2="32.5"/><line class="cls-1" x1="269.5" y1="0.5" x2="269.5" y2="32.5"/><line class="cls-1" x1="231.08" y1="0.5" x2="231.08" y2="32.5"/><line class="cls-1" x1="192.67" y1="0.5" x2="192.67" y2="32.5"/><line class="cls-1" x1="154.25" y1="0.5" x2="154.25" y2="32.5"/><line class="cls-1" x1="115.83" y1="0.5" x2="115.83" y2="32.5"/><line class="cls-1" x1="77.42" y1="0.5" x2="77.42" y2="32.5"/><path d="M351.12,187.62a.88.88,0,0,1,.31-.77,1.1,1.1,0,0,1,.65-.23.92.92,0,0,1,.64.25,1,1,0,0,1,0,1.37,2.58,2.58,0,0,0,2.53,1.32,3.34,3.34,0,0,0,2.3-.85,2.67,2.67,0,0,0,.95-2.09,3.1,3.1,0,0,0-.72-2,2.36,2.36,0,0,0-1.95-.89,3.27,3.27,0,0,0-2.65,1.05.72.72,0,0,1-.62.31.65.65,0,0,1-.47-.15.49.49,0,0,1-.18-.29,4.19,4.19,0,0,1,0-.42v-5.58a1,1,0,0,1,.17-.68.93.93,0,0,1,.67-.18h5.65l.39,0a.49.49,0,0,1,.29.18.58.58,0,0,1,.16.45c0,.41-.28.63-.84.63h-5v4a5.26,5.26,0,0,1,2.51-.61,3.81,3.81,0,0,1,2.94,1.26,4.19,4.19,0,0,1,1.16,2.92,3.88,3.88,0,0,1-1.37,3,4.76,4.76,0,0,1-3.33,1.24,4.56,4.56,0,0,1-2.94-.94A2.85,2.85,0,0,1,351.12,187.62Z" transform="translate(-297.5 -169.66)"/><path d="M385.19,180.75c0-.4.27-.61.8-.64a3,3,0,0,0,2.35-2.06c.13-.34.32-.51.58-.51s.59.29.6.87v10.92h1.91a2.07,2.07,0,0,1,.39,0,.56.56,0,0,1,.29.18.61.61,0,0,1,.16.45q0,.63-.84.63h-5.27c-.56,0-.85-.21-.85-.63a.61.61,0,0,1,.16-.45.54.54,0,0,1,.3-.18,2.07,2.07,0,0,1,.39,0h1.91v-8.86a3.35,3.35,0,0,1-2.18.92C385.42,181.38,385.19,181.17,385.19,180.75Z" transform="translate(-297.5 -169.66)"/><path d="M395.1,190a.74.74,0,0,1,.32-.57l4.64-3.91c1.61-1.35,2.42-2.62,2.41-3.83a2.44,2.44,0,0,0-1-2.07,3.76,3.76,0,0,0-2.36-.75,2.75,2.75,0,0,0-1.55.44,2.09,2.09,0,0,0-.91,1.18.81.81,0,0,1,.29.66.87.87,0,0,1-.28.68.92.92,0,0,1-.64.27,1.07,1.07,0,0,1-.65-.24.93.93,0,0,1-.3-.77,3.2,3.2,0,0,1,1.17-2.44,4.25,4.25,0,0,1,3-1.07,5,5,0,0,1,3.32,1.13,3.66,3.66,0,0,1,1.36,3,5.71,5.71,0,0,1-2.3,4.19c-.33.31-1,.9-2.07,1.76l-2.07,1.73h5c0-.26,0-.44,0-.54a.46.46,0,0,1,.19-.3.77.77,0,0,1,.52-.15c.32,0,.52.08.6.22a1.37,1.37,0,0,1,.12.64v.55a1,1,0,0,1-.17.68.94.94,0,0,1-.67.18H396C395.38,190.61,395.1,190.39,395.1,190Z" transform="translate(-297.5 -169.66)"/><path d="M423.65,180.75c0-.4.26-.61.8-.64a3,3,0,0,0,2.34-2.06c.13-.34.33-.51.59-.51s.59.29.59.87v10.92h1.91a2.07,2.07,0,0,1,.39,0,.49.49,0,0,1,.29.18.58.58,0,0,1,.16.45q0,.63-.84.63h-5.27q-.84,0-.84-.63a.58.58,0,0,1,.16-.45.49.49,0,0,1,.3-.18,2,2,0,0,1,.38,0h1.92v-8.86a3.35,3.35,0,0,1-2.19.92C423.88,181.38,423.65,181.17,423.65,180.75Z" transform="translate(-297.5 -169.66)"/><path d="M434.67,180.75c0-.4.27-.61.8-.64a3,3,0,0,0,2.35-2.06c.13-.34.32-.51.58-.51s.59.29.6.87v10.92h1.9a2.07,2.07,0,0,1,.39,0,.54.54,0,0,1,.3.18.61.61,0,0,1,.15.45q0,.63-.84.63h-5.27q-.84,0-.84-.63a.61.61,0,0,1,.16-.45.54.54,0,0,1,.3-.18,2,2,0,0,1,.38,0h1.92v-8.86a3.35,3.35,0,0,1-2.18.92C434.9,181.38,434.67,181.17,434.67,180.75Z" transform="translate(-297.5 -169.66)"/><path d="M467.61,180.75c0-.4.27-.61.8-.64a3,3,0,0,0,2.35-2.06c.13-.34.32-.51.59-.51s.58.29.59.87v10.92h1.91a2.07,2.07,0,0,1,.39,0,.52.52,0,0,1,.29.18.61.61,0,0,1,.16.45q0,.63-.84.63h-5.27q-.84,0-.84-.63a.61.61,0,0,1,.15-.45.54.54,0,0,1,.3-.18,2.07,2.07,0,0,1,.39,0h1.91v-8.86a3.35,3.35,0,0,1-2.18.92C467.84,181.38,467.61,181.17,467.61,180.75Z" transform="translate(-297.5 -169.66)"/><path d="M500.56,180.75c0-.4.26-.61.8-.64a3,3,0,0,0,2.34-2.06c.13-.34.33-.51.59-.51s.59.29.59.87v10.92h1.91a2.07,2.07,0,0,1,.39,0,.49.49,0,0,1,.29.18.58.58,0,0,1,.16.45q0,.63-.84.63h-5.27q-.84,0-.84-.63a.58.58,0,0,1,.16-.45.49.49,0,0,1,.3-.18,2,2,0,0,1,.38,0h1.92v-8.86a3.35,3.35,0,0,1-2.19.92C500.79,181.38,500.56,181.17,500.56,180.75Z" transform="translate(-297.5 -169.66)"/><path d="M510.42,184.18a8.1,8.1,0,0,1,1.32-4.72,3.51,3.51,0,0,1,6.25,0,8,8,0,0,1,1.33,4.75,8.16,8.16,0,0,1-1.32,4.73,3.51,3.51,0,0,1-6.24,0A8.08,8.08,0,0,1,510.42,184.18Zm1.45-.21a8.2,8.2,0,0,0,.88,3.95c.59,1.1,1.29,1.64,2.12,1.64s1.53-.54,2.12-1.64a8.2,8.2,0,0,0,.88-3.95,6.91,6.91,0,0,0-.9-3.69,2.24,2.24,0,0,0-4.2,0A6.9,6.9,0,0,0,511.87,184Z" transform="translate(-297.5 -169.66)"/><path d="M543.43,184.33a7.06,7.06,0,0,1,1.69-4.91,5.14,5.14,0,0,1,3.93-1.88,3,3,0,0,1,2.1.65,2,2,0,0,1,.69,1.52.94.94,0,0,1-.27.72.89.89,0,0,1-.66.26.9.9,0,0,1-.67-.27.88.88,0,0,1-.26-.65.82.82,0,0,1,.2-.6,1.58,1.58,0,0,0-1.16-.34,3.64,3.64,0,0,0-2.68,1.28,5.57,5.57,0,0,0-1.42,3.4,4.54,4.54,0,0,1,3.12-1.2,3.94,3.94,0,0,1,3,1.24,4.11,4.11,0,0,1,1.21,3,4,4,0,0,1-1.29,3.06,4.27,4.27,0,0,1-3,1.22,3.9,3.9,0,0,1-1.59-.33,4.55,4.55,0,0,1-1.41-1,4.79,4.79,0,0,1-1-2A11.05,11.05,0,0,1,543.43,184.33Zm1.66,1.61a5.58,5.58,0,0,0,.06.66l0,.18,0,.09s0,.1.05.19a1.3,1.3,0,0,1,.06.19c.51,1.53,1.37,2.31,2.6,2.31a2.81,2.81,0,0,0,2-.84,2.9,2.9,0,0,0,.86-2.16,3,3,0,0,0-.79-2.09,2.58,2.58,0,0,0-2-.88,3.08,3.08,0,0,0-2,.69A2.07,2.07,0,0,0,545.09,185.94Z" transform="translate(-297.5 -169.66)"/><path d="M581.69,187a2.85,2.85,0,0,1,.84-2,4.62,4.62,0,0,1,2.09-1.24,4.5,4.5,0,0,1-1.94-1.15,2.35,2.35,0,0,1-.69-1.64,3,3,0,0,1,1.23-2.34,4.54,4.54,0,0,1,3-1,4.68,4.68,0,0,1,3.06,1,3,3,0,0,1,1.22,2.36,2.31,2.31,0,0,1-.68,1.63,4.52,4.52,0,0,1-1.94,1.16,4.53,4.53,0,0,1,2.08,1.24,2.85,2.85,0,0,1,.84,2,3.55,3.55,0,0,1-1.31,2.72,5.16,5.16,0,0,1-6.52,0A3.54,3.54,0,0,1,581.69,187Zm1.45,0a2.34,2.34,0,0,0,.92,1.85,3.57,3.57,0,0,0,4.43,0,2.33,2.33,0,0,0,.91-1.85,2.4,2.4,0,0,0-.87-1.82,3.58,3.58,0,0,0-4.5,0A2.41,2.41,0,0,0,583.14,186.94Zm.3-6a1.81,1.81,0,0,0,.84,1.5,3.52,3.52,0,0,0,4,0,1.81,1.81,0,0,0,.84-1.5,1.84,1.84,0,0,0-.82-1.47,3.55,3.55,0,0,0-4,0A1.83,1.83,0,0,0,583.44,180.93Z" transform="translate(-297.5 -169.66)"/><path d="M620.15,187.75a1,1,0,0,1,.27-.74,1,1,0,0,1,.67-.25.84.84,0,0,1,.66.28.87.87,0,0,1,.26.65.92.92,0,0,1-.24.65,2.13,2.13,0,0,0,1.26.94,5.8,5.8,0,0,0,1.75.28,3.13,3.13,0,0,0,2.22-.79,2.4,2.4,0,0,0,.86-1.81,2.46,2.46,0,0,0-.85-1.82,3.19,3.19,0,0,0-2.29-.81h-1a2.07,2.07,0,0,1-.39,0,.53.53,0,0,1-.29-.17.54.54,0,0,1-.16-.43c0-.27.09-.44.26-.5a5.52,5.52,0,0,1,1.26-.16,3.24,3.24,0,0,0,2-.64,2.31,2.31,0,0,0,.88-1.86,1.45,1.45,0,0,0-.7-1.22,2.94,2.94,0,0,0-1.77-.5,3.24,3.24,0,0,0-2.34.65.85.85,0,0,1,.19.57.89.89,0,0,1-.29.68.93.93,0,0,1-1.28,0,.9.9,0,0,1-.3-.73,2,2,0,0,1,1.06-1.79,5.44,5.44,0,0,1,2.94-.68,4.44,4.44,0,0,1,2.84.88,2.64,2.64,0,0,1,1.1,2.11,3.56,3.56,0,0,1-.45,1.72,3.73,3.73,0,0,1-1.3,1.38,4.33,4.33,0,0,1,1.71,1.36,3.26,3.26,0,0,1,.65,2,3.62,3.62,0,0,1-1.27,2.71,4.64,4.64,0,0,1-3.26,1.17,6,6,0,0,1-3.31-.85A2.58,2.58,0,0,1,620.15,187.75Z" transform="translate(-297.5 -169.66)"/><path d="M658.6,179.21v-.89a4.26,4.26,0,0,1,0-.43.53.53,0,0,1,.2-.3.79.79,0,0,1,.52-.15c.37,0,.6.11.69.34H667l.39,0a.49.49,0,0,1,.29.18.58.58,0,0,1,.16.45.55.55,0,0,1-.07.31,3.76,3.76,0,0,1-.39.41q-.48.49-1,1a15.06,15.06,0,0,0-1.17,1.59A17,17,0,0,0,664,184a15.26,15.26,0,0,0-.88,2.74,15.69,15.69,0,0,0-.4,3.31.82.82,0,0,1-.21.62.67.67,0,0,1-.5.21c-.49,0-.74-.33-.74-1a14,14,0,0,1,.18-2.15,21.39,21.39,0,0,1,.62-2.62,14.18,14.18,0,0,1,1.35-3.07,15.94,15.94,0,0,1,2.2-2.95h-5.54c0,.27,0,.45,0,.56a.53.53,0,0,1-.19.31.74.74,0,0,1-.54.16c-.33,0-.53-.08-.62-.23A1.39,1.39,0,0,1,658.6,179.21Z" transform="translate(-297.5 -169.66)"/><path d="M696.74,186.22a1.27,1.27,0,0,1,.19-.74l4.79-7.52a.88.88,0,0,1,.34-.37,1.39,1.39,0,0,1,.55-.07h.58a1,1,0,0,1,.69.17,1.06,1.06,0,0,1,.17.7v7.39h1.64l.39,0a.49.49,0,0,1,.29.18.57.57,0,0,1,.16.44c0,.42-.28.63-.84.64h-1.64v2.27h1.3a2.07,2.07,0,0,1,.39,0,.54.54,0,0,1,.3.18.61.61,0,0,1,.15.45q0,.63-.84.63h-3.78c-.56,0-.84-.21-.83-.63a.61.61,0,0,1,.15-.45.52.52,0,0,1,.29-.18,2.18,2.18,0,0,1,.39,0h1.3v-2.27h-5.29a.68.68,0,0,1-.84-.84Zm1.48-.44h4.65v-7.33Z" transform="translate(-297.5 -169.66)"/><path d="M735.71,181.83a4,4,0,0,1,1.32-3.07,4.47,4.47,0,0,1,3.13-1.22,3.77,3.77,0,0,1,1.52.32,4.25,4.25,0,0,1,1.37,1,5,5,0,0,1,1,2,11.22,11.22,0,0,1,.39,3.14,7.29,7.29,0,0,1-1.6,4.89,4.79,4.79,0,0,1-3.76,1.89,4.71,4.71,0,0,1-1.6-.23,2,2,0,0,1-.95-.61,3.18,3.18,0,0,1-.4-.69,1.78,1.78,0,0,1-.11-.63,1,1,0,0,1,.27-.73.93.93,0,0,1,.67-.26.9.9,0,0,1,.67.27.94.94,0,0,1,.26.65.87.87,0,0,1-.19.59,2.21,2.21,0,0,0,1.38.36,3.28,3.28,0,0,0,2.6-1.36,5.93,5.93,0,0,0,1.27-3.32,4.56,4.56,0,0,1-3.13,1.2,4,4,0,0,1-3-1.24A4.16,4.16,0,0,1,735.71,181.83Zm1.44,0a3,3,0,0,0,.79,2.09,2.6,2.6,0,0,0,2,.87,3,3,0,0,0,2.07-.71,2.16,2.16,0,0,0,.81-1.64,2,2,0,0,0,0-.35c0-.16,0-.25,0-.28s0-.08,0-.11a.28.28,0,0,0,0-.08,2.3,2.3,0,0,0-.08-.38c-.06-.19-.16-.44-.28-.74a3.31,3.31,0,0,0-.44-.77,2.23,2.23,0,0,0-1.82-.9,3,3,0,0,0-2.1.84A2.8,2.8,0,0,0,737.15,181.83Z" transform="translate(-297.5 -169.66)"/><path d="M774.13,190a.77.77,0,0,1,.32-.57l4.64-3.91c1.62-1.35,2.42-2.62,2.41-3.83a2.44,2.44,0,0,0-1-2.07,3.76,3.76,0,0,0-2.36-.75,2.72,2.72,0,0,0-1.54.44,2.11,2.11,0,0,0-.92,1.18.79.79,0,0,1,.3.66.88.88,0,0,1-.29.68.9.9,0,0,1-.64.27,1,1,0,0,1-.64-.24.91.91,0,0,1-.31-.77,3.2,3.2,0,0,1,1.17-2.44,4.25,4.25,0,0,1,3-1.07,5,5,0,0,1,3.33,1.13,3.68,3.68,0,0,1,1.35,3,5.69,5.69,0,0,1-2.29,4.19c-.34.31-1,.9-2.08,1.76l-2.07,1.73h5c0-.26,0-.44,0-.54a.5.5,0,0,1,.19-.3.78.78,0,0,1,.53-.15c.31,0,.51.08.59.22a1.37,1.37,0,0,1,.12.64v.55a1,1,0,0,1-.17.68.93.93,0,0,1-.67.18H775C774.42,190.61,774.13,190.39,774.13,190Z" transform="translate(-297.5 -169.66)"/><line class="cls-1" x1="269.5" y1="32.34" x2="19.5" y2="78.34"/><line class="cls-1" x1="269.5" y1="32.34" x2="346.5" y2="78.34"/><line class="cls-1" x1="346" y1="110.84" x2="269" y2="156.84"/><line class="cls-1" x1="346" y1="110.84" x2="577" y2="156.84"/><line class="cls-1" x1="269" y1="188.84" x2="173" y2="234.84"/><line class="cls-1" x1="269" y1="188.84" x2="442" y2="234.84"/><line class="cls-1" x1="173" y1="266.84" x2="39" y2="312.84"/><line class="cls-1" x1="173" y1="266.84" x2="250" y2="312.84"/><line class="cls-1" x1="442" y1="266.84" x2="364" y2="312.84"/><line class="cls-1" x1="250" y1="344.84" x2="154" y2="391.84"/><line class="cls-1" x1="442" y1="266.84" x2="519" y2="312.84"/><line class="cls-1" x1="250" y1="344.84" x2="327" y2="391.84"/><line class="cls-1" x1="327" y1="423.84" x2="251" y2="469.84"/><line class="cls-1" x1="327" y1="423.84" x2="404" y2="469.84"/></svg>