<svg id="Layer_1" data-name="Layer 1" xmlns="http://www.w3.org/2000/svg" viewBox="0 0 790.5 949"><defs><style>.cls-1{fill:#fff;}.cls-2,.cls-3{font-size:17px;}.cls-2,.cls-4,.cls-6{font-family:CMUTypewriter-Regular, CMU Typewriter Text;}.cls-3{font-family:CMUTypewriter-Bold, CMU Typewriter Text;font-weight:700;}.cls-4{font-weight:400;}.cls-5,.cls-7{fill:none;stroke:#000;stroke-miterlimit:10;}.cls-5{stroke-dasharray:12.08 12.08;}.cls-6{font-size:16px;}</style></defs><rect class="cls-1" x="7.5" y="124.5" width="164" height="58" rx="17.58"/><path d="M441.17,226a17.1,17.1,0,0,1,17.08,17.08v22.84A17.1,17.1,0,0,1,441.17,283H312.33a17.1,17.1,0,0,1-17.08-17.08V243.08A17.1,17.1,0,0,1,312.33,226H441.17m0-1H312.33a18.07,18.07,0,0,0-18.08,18.08v22.84A18.07,18.07,0,0,0,312.33,284H441.17a18.07,18.07,0,0,0,18.08-18.08V243.08A18.07,18.07,0,0,0,441.17,225Z" transform="translate(-287.25 -101)"/><text class="cls-2" transform="translate(44.88 157.1)">A[<tspan x="17.85" y="0">0</tspan><tspan x="26.77" y="0">], A[</tspan><tspan x="71.39" y="0">1</tspan><tspan x="80.31" y="0">]</tspan></text><rect class="cls-1" x="615.5" y="124.5" width="164" height="58" rx="17.58"/><path d="M1049.17,226a17.1,17.1,0,0,1,17.08,17.08v22.84A17.1,17.1,0,0,1,1049.17,283H920.33a17.1,17.1,0,0,1-17.08-17.08V243.08A17.1,17.1,0,0,1,920.33,226h128.84m0-1H920.33a18.07,18.07,0,0,0-18.08,18.08v22.84A18.07,18.07,0,0,0,920.33,284h128.84a18.07,18.07,0,0,0,18.08-18.08V243.08A18.07,18.07,0,0,0,1049.17,225Z" transform="translate(-287.25 -101)"/><text class="cls-2" transform="translate(643.96 157.1)">A[<tspan x="17.85" y="0">14</tspan><tspan x="35.69" y="0">], A[</tspan><tspan x="80.31" y="0">15</tspan><tspan x="98.16" y="0">]</tspan></text><rect class="cls-1" x="194.06" y="124.5" width="164" height="58" rx="17.58"/><path d="M627.73,226a17.1,17.1,0,0,1,17.08,17.08v22.84A17.1,17.1,0,0,1,627.73,283H498.89a17.1,17.1,0,0,1-17.08-17.08V243.08A17.1,17.1,0,0,1,498.89,226H627.73m0-1H498.89a18.07,18.07,0,0,0-18.08,18.08v22.84A18.07,18.07,0,0,0,498.89,284H627.73a18.08,18.08,0,0,0,18.08-18.08V243.08A18.08,18.08,0,0,0,627.73,225Z" transform="translate(-287.25 -101)"/><text class="cls-2" transform="translate(231.44 157.1)">A[<tspan x="17.85" y="0">2</tspan><tspan x="26.77" y="0">], A[</tspan><tspan x="71.39" y="0">3</tspan><tspan x="80.31" y="0">]</tspan></text><rect class="cls-1" x="380.61" y="124.5" width="164" height="58" rx="17.58"/><path d="M814.29,226a17.09,17.09,0,0,1,17.07,17.08v22.84A17.09,17.09,0,0,1,814.29,283H685.44a17.1,17.1,0,0,1-17.08-17.08V243.08A17.1,17.1,0,0,1,685.44,226H814.29m0-1H685.44a18.08,18.08,0,0,0-18.08,18.08v22.84A18.08,18.08,0,0,0,685.44,284H814.29a18.07,18.07,0,0,0,18.07-18.08V243.08A18.07,18.07,0,0,0,814.29,225Z" transform="translate(-287.25 -101)"/><text class="cls-2" transform="translate(418 157.1)">A[<tspan x="17.85" y="0">4</tspan><tspan x="26.77" y="0">], A[</tspan><tspan x="71.39" y="0">5</tspan><tspan x="80.31" y="0">]</tspan></text><rect class="cls-1" x="312.25" y="0.5" width="164" height="58" rx="17.58"/><path d="M745.92,102A17.1,17.1,0,0,1,763,119.08v22.84A17.1,17.1,0,0,1,745.92,159H617.08A17.1,17.1,0,0,1,600,141.92V119.08A17.1,17.1,0,0,1,617.08,102H745.92m0-1H617.08A18.07,18.07,0,0,0,599,119.08v22.84A18.07,18.07,0,0,0,617.08,160H745.92A18.07,18.07,0,0,0,764,141.92V119.08A18.07,18.07,0,0,0,745.92,101Z" transform="translate(-287.25 -101)"/><text class="cls-3" transform="translate(322.86 33.1)">j == <tspan x="44.62" y="0">0</tspan><tspan class="cls-4" x="53.54" y="0" xml:space="preserve"> iteration</tspan></text><rect class="cls-1" x="312.25" y="248.5" width="164" height="58" rx="17.58"/><path d="M745.92,350A17.1,17.1,0,0,1,763,367.08v22.84A17.1,17.1,0,0,1,745.92,407H617.08A17.1,17.1,0,0,1,600,389.92V367.08A17.1,17.1,0,0,1,617.08,350H745.92m0-1H617.08A18.07,18.07,0,0,0,599,367.08v22.84A18.07,18.07,0,0,0,617.08,408H745.92A18.07,18.07,0,0,0,764,389.92V367.08A18.07,18.07,0,0,0,745.92,349Z" transform="translate(-287.25 -101)"/><text class="cls-3" transform="translate(322.86 281.1)">j == <tspan x="44.62" y="0">1</tspan><tspan class="cls-4" x="53.54" y="0" xml:space="preserve"> iteration</tspan></text><text class="cls-2" transform="translate(558.5 156.87)">...</text><path d="M377.5,225" transform="translate(-287.25 -101)"/><rect class="cls-5" x="0.5" y="105.5" width="787.5" height="96" rx="16.02"/><text class="cls-6" transform="translate(0.5 89.39)">8<tspan x="8.4" y="0" xml:space="preserve"> cores</tspan></text><line class="cls-7" x1="395.25" y1="58" x2="96.15" y2="123.21"/><path d="M377.5,225.5a30.09,30.09,0,0,0,7.34-6.47l-.67,5,2.69,4.27A30.2,30.2,0,0,0,377.5,225.5Z" transform="translate(-287.25 -101)"/><line class="cls-7" x1="395.25" y1="58" x2="281.52" y2="121.56"/><path d="M563.5,225.5a30.43,30.43,0,0,0,5.14-8.32l.82,5,3.82,3.31A30,30,0,0,0,563.5,225.5Z" transform="translate(-287.25 -101)"/><line class="cls-7" x1="395.25" y1="58" x2="457.97" y2="120.25"/><path d="M749.5,225.5a30.43,30.43,0,0,0-9.42-2.65l4.57-2.16,2.13-4.59A30.39,30.39,0,0,0,749.5,225.5Z" transform="translate(-287.25 -101)"/><line class="cls-7" x1="395.25" y1="58" x2="691.36" y2="123.2"/><path d="M984.5,225.5a30.25,30.25,0,0,0-9.37,2.81l2.7-4.28-.65-5A30.06,30.06,0,0,0,984.5,225.5Z" transform="translate(-287.25 -101)"/><line class="cls-7" x1="90.25" y1="183.5" x2="388.35" y2="247.24"/><path d="M681.5,349.5a30.38,30.38,0,0,0-9.35,2.86l2.67-4.29-.68-5A29.9,29.9,0,0,0,681.5,349.5Z" transform="translate(-287.25 -101)"/><line class="cls-7" x1="276.25" y1="183.5" x2="388.96" y2="245.59"/><path d="M681.5,349.5a30.25,30.25,0,0,0-9.78,0l3.8-3.33.79-5A30.07,30.07,0,0,0,681.5,349.5Z" transform="translate(-287.25 -101)"/><line class="cls-7" x1="462.25" y1="183.5" x2="398.61" y2="244.33"/><path d="M681.5,349.5a30.26,30.26,0,0,0,2.89-9.34l2.05,4.62L691,347A30.17,30.17,0,0,0,681.5,349.5Z" transform="translate(-287.25 -101)"/><line class="cls-7" x1="697.25" y1="183.5" x2="400.15" y2="247.23"/><path d="M681.5,349.5a30.29,30.29,0,0,0,7.36-6.44l-.68,5,2.67,4.29A29.85,29.85,0,0,0,681.5,349.5Z" transform="translate(-287.25 -101)"/><rect class="cls-1" x="7.5" y="373.5" width="164" height="58" rx="17.58"/><path d="M441.17,475a17.1,17.1,0,0,1,17.08,17.08v22.84A17.1,17.1,0,0,1,441.17,532H312.33a17.1,17.1,0,0,1-17.08-17.08V492.08A17.1,17.1,0,0,1,312.33,475H441.17m0-1H312.33a18.07,18.07,0,0,0-18.08,18.08v22.84A18.07,18.07,0,0,0,312.33,533H441.17a18.07,18.07,0,0,0,18.08-18.08V492.08A18.07,18.07,0,0,0,441.17,474Z" transform="translate(-287.25 -101)"/><text class="cls-2" transform="translate(44.88 406.1)">A[<tspan x="17.85" y="0">0</tspan><tspan x="26.77" y="0">], A[</tspan><tspan x="71.39" y="0">1</tspan><tspan x="80.31" y="0">]</tspan></text><rect class="cls-1" x="615.5" y="373.5" width="164" height="58" rx="17.58"/><path d="M1049.17,475a17.1,17.1,0,0,1,17.08,17.08v22.84A17.1,17.1,0,0,1,1049.17,532H920.33a17.1,17.1,0,0,1-17.08-17.08V492.08A17.1,17.1,0,0,1,920.33,475h128.84m0-1H920.33a18.07,18.07,0,0,0-18.08,18.08v22.84A18.07,18.07,0,0,0,920.33,533h128.84a18.07,18.07,0,0,0,18.08-18.08V492.08A18.07,18.07,0,0,0,1049.17,474Z" transform="translate(-287.25 -101)"/><text class="cls-2" transform="translate(643.96 406.1)">A[<tspan x="17.85" y="0">14</tspan><tspan x="35.69" y="0">], A[</tspan><tspan x="80.31" y="0">15</tspan><tspan x="98.16" y="0">]</tspan></text><rect class="cls-1" x="194.06" y="373.5" width="164" height="58" rx="17.58"/><path d="M627.73,475a17.1,17.1,0,0,1,17.08,17.08v22.84A17.1,17.1,0,0,1,627.73,532H498.89a17.1,17.1,0,0,1-17.08-17.08V492.08A17.1,17.1,0,0,1,498.89,475H627.73m0-1H498.89a18.07,18.07,0,0,0-18.08,18.08v22.84A18.07,18.07,0,0,0,498.89,533H627.73a18.08,18.08,0,0,0,18.08-18.08V492.08A18.08,18.08,0,0,0,627.73,474Z" transform="translate(-287.25 -101)"/><text class="cls-2" transform="translate(231.44 406.1)">A[<tspan x="17.85" y="0">2</tspan><tspan x="26.77" y="0">], A[</tspan><tspan x="71.39" y="0">3</tspan><tspan x="80.31" y="0">]</tspan></text><rect class="cls-1" x="380.61" y="373.5" width="164" height="58" rx="17.58"/><path d="M814.29,475a17.09,17.09,0,0,1,17.07,17.08v22.84A17.09,17.09,0,0,1,814.29,532H685.44a17.1,17.1,0,0,1-17.08-17.08V492.08A17.1,17.1,0,0,1,685.44,475H814.29m0-1H685.44a18.08,18.08,0,0,0-18.08,18.08v22.84A18.08,18.08,0,0,0,685.44,533H814.29a18.07,18.07,0,0,0,18.07-18.08V492.08A18.07,18.07,0,0,0,814.29,474Z" transform="translate(-287.25 -101)"/><text class="cls-2" transform="translate(418 406.1)">A[<tspan x="17.85" y="0">4</tspan><tspan x="26.77" y="0">], A[</tspan><tspan x="71.39" y="0">5</tspan><tspan x="80.31" y="0">]</tspan></text><rect class="cls-1" x="312.25" y="497.5" width="164" height="58" rx="17.58"/><path d="M745.92,599A17.1,17.1,0,0,1,763,616.08v22.84A17.1,17.1,0,0,1,745.92,656H617.08A17.1,17.1,0,0,1,600,638.92V616.08A17.1,17.1,0,0,1,617.08,599H745.92m0-1H617.08A18.07,18.07,0,0,0,599,616.08v22.84A18.07,18.07,0,0,0,617.08,657H745.92A18.07,18.07,0,0,0,764,638.92V616.08A18.07,18.07,0,0,0,745.92,598Z" transform="translate(-287.25 -101)"/><text class="cls-3" transform="translate(322.86 530.1)">j == <tspan x="44.62" y="0">2</tspan><tspan class="cls-4" x="53.54" y="0" xml:space="preserve"> iteration</tspan></text><text class="cls-2" transform="translate(558.5 405.87)">...</text><path d="M377.5,474" transform="translate(-287.25 -101)"/><rect class="cls-5" x="0.5" y="354.5" width="787.5" height="96" rx="16.02"/><text class="cls-6" transform="translate(0.5 338.39)">8<tspan x="8.4" y="0" xml:space="preserve"> cores</tspan></text><line class="cls-7" x1="395.25" y1="307" x2="96.15" y2="372.21"/><path d="M377.5,474.5a30.09,30.09,0,0,0,7.34-6.47l-.67,5,2.69,4.27A30.2,30.2,0,0,0,377.5,474.5Z" transform="translate(-287.25 -101)"/><line class="cls-7" x1="395.25" y1="307" x2="281.52" y2="370.56"/><path d="M563.5,474.5a30.43,30.43,0,0,0,5.14-8.32l.82,5,3.82,3.31A30,30,0,0,0,563.5,474.5Z" transform="translate(-287.25 -101)"/><line class="cls-7" x1="395.25" y1="307" x2="457.97" y2="369.25"/><path d="M749.5,474.5a30.43,30.43,0,0,0-9.42-2.65l4.57-2.16,2.13-4.59A30.39,30.39,0,0,0,749.5,474.5Z" transform="translate(-287.25 -101)"/><line class="cls-7" x1="395.25" y1="307" x2="691.36" y2="372.2"/><path d="M984.5,474.5a30.25,30.25,0,0,0-9.37,2.81l2.7-4.28-.65-5A30.06,30.06,0,0,0,984.5,474.5Z" transform="translate(-287.25 -101)"/><line class="cls-7" x1="90.25" y1="432.5" x2="388.35" y2="496.24"/><path d="M681.5,598.5a30.38,30.38,0,0,0-9.35,2.86l2.67-4.29-.68-5A29.9,29.9,0,0,0,681.5,598.5Z" transform="translate(-287.25 -101)"/><line class="cls-7" x1="276.25" y1="432.5" x2="388.96" y2="494.59"/><path d="M681.5,598.5a30.25,30.25,0,0,0-9.78,0l3.8-3.33.79-5A30.07,30.07,0,0,0,681.5,598.5Z" transform="translate(-287.25 -101)"/><line class="cls-7" x1="462.25" y1="432.5" x2="398.61" y2="493.33"/><path d="M681.5,598.5a30.26,30.26,0,0,0,2.89-9.34l2.05,4.62L691,596A30.17,30.17,0,0,0,681.5,598.5Z" transform="translate(-287.25 -101)"/><line class="cls-7" x1="697.25" y1="432.5" x2="400.15" y2="496.23"/><path d="M681.5,598.5a30.29,30.29,0,0,0,7.36-6.44l-.68,5,2.67,4.29A29.85,29.85,0,0,0,681.5,598.5Z" transform="translate(-287.25 -101)"/><rect class="cls-1" x="7.5" y="622.5" width="164" height="58" rx="17.58"/><path d="M441.17,724a17.1,17.1,0,0,1,17.08,17.08v22.84A17.1,17.1,0,0,1,441.17,781H312.33a17.1,17.1,0,0,1-17.08-17.08V741.08A17.1,17.1,0,0,1,312.33,724H441.17m0-1H312.33a18.07,18.07,0,0,0-18.08,18.08v22.84A18.07,18.07,0,0,0,312.33,782H441.17a18.07,18.07,0,0,0,18.08-18.08V741.08A18.07,18.07,0,0,0,441.17,723Z" transform="translate(-287.25 -101)"/><text class="cls-2" transform="translate(44.88 655.1)">A[<tspan x="17.85" y="0">0</tspan><tspan x="26.77" y="0">], A[</tspan><tspan x="71.39" y="0">1</tspan><tspan x="80.31" y="0">]</tspan></text><rect class="cls-1" x="615.5" y="622.5" width="164" height="58" rx="17.58"/><path d="M1049.17,724a17.1,17.1,0,0,1,17.08,17.08v22.84A17.1,17.1,0,0,1,1049.17,781H920.33a17.1,17.1,0,0,1-17.08-17.08V741.08A17.1,17.1,0,0,1,920.33,724h128.84m0-1H920.33a18.07,18.07,0,0,0-18.08,18.08v22.84A18.07,18.07,0,0,0,920.33,782h128.84a18.07,18.07,0,0,0,18.08-18.08V741.08A18.07,18.07,0,0,0,1049.17,723Z" transform="translate(-287.25 -101)"/><text class="cls-2" transform="translate(643.96 655.1)">A[<tspan x="17.85" y="0">14</tspan><tspan x="35.69" y="0">], A[</tspan><tspan x="80.31" y="0">15</tspan><tspan x="98.16" y="0">]</tspan></text><rect class="cls-1" x="194.06" y="622.5" width="164" height="58" rx="17.58"/><path d="M627.73,724a17.1,17.1,0,0,1,17.08,17.08v22.84A17.1,17.1,0,0,1,627.73,781H498.89a17.1,17.1,0,0,1-17.08-17.08V741.08A17.1,17.1,0,0,1,498.89,724H627.73m0-1H498.89a18.07,18.07,0,0,0-18.08,18.08v22.84A18.07,18.07,0,0,0,498.89,782H627.73a18.08,18.08,0,0,0,18.08-18.08V741.08A18.08,18.08,0,0,0,627.73,723Z" transform="translate(-287.25 -101)"/><text class="cls-2" transform="translate(231.44 655.1)">A[<tspan x="17.85" y="0">2</tspan><tspan x="26.77" y="0">], A[</tspan><tspan x="71.39" y="0">3</tspan><tspan x="80.31" y="0">]</tspan></text><rect class="cls-1" x="380.61" y="622.5" width="164" height="58" rx="17.58"/><path d="M814.29,724a17.09,17.09,0,0,1,17.07,17.08v22.84A17.09,17.09,0,0,1,814.29,781H685.44a17.1,17.1,0,0,1-17.08-17.08V741.08A17.1,17.1,0,0,1,685.44,724H814.29m0-1H685.44a18.08,18.08,0,0,0-18.08,18.08v22.84A18.08,18.08,0,0,0,685.44,782H814.29a18.07,18.07,0,0,0,18.07-18.08V741.08A18.07,18.07,0,0,0,814.29,723Z" transform="translate(-287.25 -101)"/><text class="cls-2" transform="translate(418 655.1)">A[<tspan x="17.85" y="0">4</tspan><tspan x="26.77" y="0">], A[</tspan><tspan x="71.39" y="0">5</tspan><tspan x="80.31" y="0">]</tspan></text><rect class="cls-1" x="312.25" y="746.5" width="164" height="58" rx="17.58"/><path d="M745.92,848A17.1,17.1,0,0,1,763,865.08v22.84A17.1,17.1,0,0,1,745.92,905H617.08A17.1,17.1,0,0,1,600,887.92V865.08A17.1,17.1,0,0,1,617.08,848H745.92m0-1H617.08A18.07,18.07,0,0,0,599,865.08v22.84A18.07,18.07,0,0,0,617.08,906H745.92A18.07,18.07,0,0,0,764,887.92V865.08A18.07,18.07,0,0,0,745.92,847Z" transform="translate(-287.25 -101)"/><text class="cls-3" transform="translate(322.86 779.1)">j == <tspan x="44.62" y="0">3</tspan><tspan class="cls-4" x="53.54" y="0" xml:space="preserve"> iteration</tspan></text><text class="cls-2" transform="translate(558.5 654.87)">...</text><path d="M377.5,723" transform="translate(-287.25 -101)"/><rect class="cls-5" x="0.5" y="603.5" width="787.5" height="96" rx="16.02"/><text class="cls-6" transform="translate(0.5 587.39)">8<tspan x="8.4" y="0" xml:space="preserve"> cores</tspan></text><line class="cls-7" x1="395.25" y1="556" x2="96.15" y2="621.21"/><path d="M377.5,723.5a30.09,30.09,0,0,0,7.34-6.47l-.67,5,2.69,4.27A30.2,30.2,0,0,0,377.5,723.5Z" transform="translate(-287.25 -101)"/><line class="cls-7" x1="395.25" y1="556" x2="281.52" y2="619.56"/><path d="M563.5,723.5a30.43,30.43,0,0,0,5.14-8.32l.82,5,3.82,3.31A30,30,0,0,0,563.5,723.5Z" transform="translate(-287.25 -101)"/><line class="cls-7" x1="395.25" y1="556" x2="457.97" y2="618.25"/><path d="M749.5,723.5a30.43,30.43,0,0,0-9.42-2.65l4.57-2.16,2.13-4.59A30.39,30.39,0,0,0,749.5,723.5Z" transform="translate(-287.25 -101)"/><line class="cls-7" x1="395.25" y1="556" x2="691.36" y2="621.2"/><path d="M984.5,723.5a30.25,30.25,0,0,0-9.37,2.81l2.7-4.28-.65-5A30.06,30.06,0,0,0,984.5,723.5Z" transform="translate(-287.25 -101)"/><rect class="cls-1" x="9.5" y="871.5" width="164" height="58" rx="17.58"/><path d="M443.17,973a17.1,17.1,0,0,1,17.08,17.08v22.84A17.1,17.1,0,0,1,443.17,1030H314.33a17.1,17.1,0,0,1-17.08-17.08V990.08A17.1,17.1,0,0,1,314.33,973H443.17m0-1H314.33a18.07,18.07,0,0,0-18.08,18.08v22.84A18.07,18.07,0,0,0,314.33,1031H443.17a18.07,18.07,0,0,0,18.08-18.08V990.08A18.07,18.07,0,0,0,443.17,972Z" transform="translate(-287.25 -101)"/><text class="cls-2" transform="translate(46.88 904.1)">A[<tspan x="17.85" y="0">0</tspan><tspan x="26.77" y="0">], A[</tspan><tspan x="71.39" y="0">1</tspan><tspan x="80.31" y="0">]</tspan></text><rect class="cls-1" x="617.5" y="871.5" width="164" height="58" rx="17.58"/><path d="M1051.17,973a17.1,17.1,0,0,1,17.08,17.08v22.84a17.1,17.1,0,0,1-17.08,17.08H922.33a17.1,17.1,0,0,1-17.08-17.08V990.08A17.1,17.1,0,0,1,922.33,973h128.84m0-1H922.33a18.07,18.07,0,0,0-18.08,18.08v22.84A18.07,18.07,0,0,0,922.33,1031h128.84a18.07,18.07,0,0,0,18.08-18.08V990.08A18.07,18.07,0,0,0,1051.17,972Z" transform="translate(-287.25 -101)"/><text class="cls-2" transform="translate(645.96 904.1)">A[<tspan x="17.85" y="0">14</tspan><tspan x="35.69" y="0">], A[</tspan><tspan x="80.31" y="0">15</tspan><tspan x="98.16" y="0">]</tspan></text><rect class="cls-1" x="196.06" y="871.5" width="164" height="58" rx="17.58"/><path d="M629.73,973a17.1,17.1,0,0,1,17.08,17.08v22.84A17.1,17.1,0,0,1,629.73,1030H500.89a17.1,17.1,0,0,1-17.08-17.08V990.08A17.1,17.1,0,0,1,500.89,973H629.73m0-1H500.89a18.07,18.07,0,0,0-18.08,18.08v22.84A18.07,18.07,0,0,0,500.89,1031H629.73a18.08,18.08,0,0,0,18.08-18.08V990.08A18.08,18.08,0,0,0,629.73,972Z" transform="translate(-287.25 -101)"/><text class="cls-2" transform="translate(233.44 904.1)">A[<tspan x="17.85" y="0">2</tspan><tspan x="26.77" y="0">], A[</tspan><tspan x="71.39" y="0">3</tspan><tspan x="80.31" y="0">]</tspan></text><rect class="cls-1" x="382.61" y="871.5" width="164" height="58" rx="17.58"/><path d="M816.29,973a17.09,17.09,0,0,1,17.07,17.08v22.84A17.09,17.09,0,0,1,816.29,1030H687.44a17.1,17.1,0,0,1-17.08-17.08V990.08A17.1,17.1,0,0,1,687.44,973H816.29m0-1H687.44a18.08,18.08,0,0,0-18.08,18.08v22.84A18.08,18.08,0,0,0,687.44,1031H816.29a18.07,18.07,0,0,0,18.07-18.08V990.08A18.07,18.07,0,0,0,816.29,972Z" transform="translate(-287.25 -101)"/><text class="cls-2" transform="translate(420 904.1)">A[<tspan x="17.85" y="0">4</tspan><tspan x="26.77" y="0">], A[</tspan><tspan x="71.39" y="0">5</tspan><tspan x="80.31" y="0">]</tspan></text><text class="cls-2" transform="translate(560.5 903.87)">...</text><path d="M379.5,972" transform="translate(-287.25 -101)"/><rect class="cls-5" x="2.5" y="852.5" width="787.5" height="96" rx="16.02"/><text class="cls-6" transform="translate(2.5 836.39)">8<tspan x="8.4" y="0" xml:space="preserve"> cores</tspan></text><line class="cls-7" x1="397.25" y1="805" x2="98.15" y2="870.21"/><path d="M379.5,972.5a30.09,30.09,0,0,0,7.34-6.47l-.67,5,2.69,4.27A30.2,30.2,0,0,0,379.5,972.5Z" transform="translate(-287.25 -101)"/><line class="cls-7" x1="397.25" y1="805" x2="283.52" y2="868.56"/><path d="M565.5,972.5a30.43,30.43,0,0,0,5.14-8.32l.82,5,3.82,3.31A30,30,0,0,0,565.5,972.5Z" transform="translate(-287.25 -101)"/><line class="cls-7" x1="397.25" y1="805" x2="459.97" y2="867.25"/><path d="M751.5,972.5a30.43,30.43,0,0,0-9.42-2.65l4.57-2.16,2.13-4.59A30.39,30.39,0,0,0,751.5,972.5Z" transform="translate(-287.25 -101)"/><line class="cls-7" x1="397.25" y1="805" x2="693.36" y2="870.2"/><path d="M986.5,972.5a30.25,30.25,0,0,0-9.37,2.81l2.7-4.28-.65-5A30.06,30.06,0,0,0,986.5,972.5Z" transform="translate(-287.25 -101)"/><line class="cls-7" x1="90.25" y1="681.5" x2="388.35" y2="745.24"/><path d="M681.5,847.5a30.38,30.38,0,0,0-9.35,2.86l2.67-4.29-.68-5A29.9,29.9,0,0,0,681.5,847.5Z" transform="translate(-287.25 -101)"/><line class="cls-7" x1="276.25" y1="681.5" x2="388.96" y2="743.59"/><path d="M681.5,847.5a30.25,30.25,0,0,0-9.78,0l3.8-3.33.79-5A30.07,30.07,0,0,0,681.5,847.5Z" transform="translate(-287.25 -101)"/><line class="cls-7" x1="462.25" y1="681.5" x2="398.61" y2="742.33"/><path d="M681.5,847.5a30.26,30.26,0,0,0,2.89-9.34l2.05,4.62L691,845A30.17,30.17,0,0,0,681.5,847.5Z" transform="translate(-287.25 -101)"/><line class="cls-7" x1="697.25" y1="681.5" x2="400.15" y2="745.23"/><path d="M681.5,847.5a30.29,30.29,0,0,0,7.36-6.44l-.68,5,2.67,4.29A29.85,29.85,0,0,0,681.5,847.5Z" transform="translate(-287.25 -101)"/></svg>